<mxfile host="app.diagrams.net" modified="2024-06-20T03:15:25.370Z" agent="Mozilla/5.0 (Windows NT 10.0; Win64; x64) AppleWebKit/537.36 (KHTML, like Gecko) Chrome/126.0.0.0 Safari/537.36" etag="_pAM6uaKDMdn2dD4NB_H" version="24.5.5" type="device">
  <diagram name="Page-1" id="VF1FfFMqeTHgVSWAHchl">
    <mxGraphModel dx="4454" dy="2319" grid="1" gridSize="10" guides="1" tooltips="1" connect="1" arrows="1" fold="1" page="1" pageScale="1" pageWidth="827" pageHeight="1169" math="0" shadow="0">
      <root>
        <mxCell id="0" />
        <mxCell id="1" parent="0" />
        <UserObject label="" plantUmlData="{&#xa;  &quot;data&quot;: &quot;@startuml\npackage \&quot;Client\&quot; {\n    class Client {\n        - host: str\n        - port: int\n        - socket: socket\n        - role: int\n        - user_id: int\n        - menu_display: MenuDisplay\n        - request_data: RequestData\n        - notification_listener: NotificationListener\n        - notification_thread: threading.Thread\n        __init__(host: str, port: int)\n        _create_socket() -&gt; socket\n        send_request(request: dict) -&gt; dict\n        login() -&gt; bool\n        get_role_name(role: int) -&gt; str\n        main_loop()\n    }\n\n    class MenuDisplay {\n        - client: Client\n        __init__(client: Client)\n        display_menu(role: int)\n        _display_admin_menu()\n        _display_chef_menu()\n        _display_employee_menu()\n    }\n\n    class RequestData {\n        - client: Client\n        __init__(client: Client)\n        get_request_data(action: int, role: int, user_id: int) -&gt; dict\n        _get_admin_request_data(action: int) -&gt; dict\n        _get_chef_request_data(action: int) -&gt; dict\n        _get_employee_request_data(action: int, user_id: int) -&gt; dict\n    }\n\n    class NotificationListener {\n        - socket: socket\n        __init__(socket: socket)\n        listen_for_notifications()\n    }\n\n    Client --&gt; MenuDisplay\n    Client --&gt; RequestData\n    Client --&gt; NotificationListener\n}\n\npackage \&quot;Server\&quot; {\n    class Server {\n        - host: str\n        - port: int\n        - clients: dict\n        - db: DBConnection\n        - request_handler: RequestHandler\n        __init__(host: str, port: int)\n        start_server()\n        handle_client(client_socket: socket, client_address: str)\n        _send_error_response(client_socket: socket, message: str)\n    }\n\n    class RequestHandler {\n        - user_management: UserManagement\n        - menu_management: MenuManagement\n        - notification_service: NotificationService\n        - voting_service: VotingService\n        - feedback_service: FeedbackService\n        __init__(db: DBConnection, clients: dict)\n        handle_request(request: dict, client_socket: socket) -&gt; dict\n        invalid_action(request: dict, client_socket: socket) -&gt; dict\n    }\n\n    class UserManagement {\n        - db: DBConnection\n        - clients: dict\n        __init__(db: DBConnection, clients: dict)\n        login(request: dict, client_socket: socket) -&gt; dict\n    }\n\n    class MenuManagement {\n        - db: DBConnection\n        __init__(db: DBConnection)\n        view_menu(request: dict, client_socket: socket) -&gt; dict\n        add_menu_item(request: dict, client_socket: socket) -&gt; dict\n        update_menu_item(request: dict, client_socket: socket) -&gt; dict\n        delete_menu_item(request: dict, client_socket: socket) -&gt; dict\n        get_recommendations(request: dict, client_socket: socket) -&gt; dict\n        _execute_update(cursor: db.cursor, item_id: int, name: str, price: float, availability: str)\n        _send_notification_to_all_employees(message: str)\n        _broadcast_notification(message: str)\n    }\n\n    class NotificationService {\n        - db: DBConnection\n        - clients: dict\n        __init__(db: DBConnection, clients: dict)\n        send_notification(request: dict, client_socket: socket) -&gt; dict\n        view_notifications(request: dict, client_socket: socket) -&gt; dict\n        _broadcast_notification(message: str)\n    }\n\n    class VotingService {\n        - db: DBConnection\n        __init__(db: DBConnection)\n        vote_for_menu_item(request: dict, client_socket: socket) -&gt; dict\n        view_vote_counts(request: dict, client_socket: socket) -&gt; dict\n    }\n\n    class FeedbackService {\n        - db: DBConnection\n        __init__(db: DBConnection)\n        submit_feedback(request: dict, client_socket: socket) -&gt; dict\n        view_reports(request: dict, client_socket: socket) -&gt; dict\n    }\n\n    class CustomJSONEncoder {\n        + default(obj: any) -&gt; str\n    }\n\n    class DBConnection {\n        + get_db_connection() -&gt; db.connection\n    }\n\n    Server --&gt; RequestHandler\n    RequestHandler --&gt; UserManagement\n    RequestHandler --&gt; MenuManagement\n    RequestHandler --&gt; NotificationService\n    RequestHandler --&gt; VotingService\n    RequestHandler --&gt; FeedbackService\n    UserManagement --&gt; DBConnection\n    MenuManagement --&gt; DBConnection\n    NotificationService --&gt; DBConnection\n    VotingService --&gt; DBConnection\n    FeedbackService --&gt; DBConnection\n}\n@enduml&quot;,&#xa;  &quot;format&quot;: &quot;svg&quot;&#xa;}" id="qNRsGQvlrhnCsrwWHpg4-1">
          <mxCell style="shape=image;noLabel=1;verticalAlign=top;aspect=fixed;imageAspect=0;image=data:image/svg+xml,PD94bWwgdmVyc2lvbj0iMS4wIiBlbmNvZGluZz0idXMtYXNjaWkiIHN0YW5kYWxvbmU9Im5vIj8+PHN2ZyB4bWxucz0iaHR0cDovL3d3dy53My5vcmcvMjAwMC9zdmciIHhtbG5zOnhsaW5rPSJodHRwOi8vd3d3LnczLm9yZy8xOTk5L3hsaW5rIiBjb250ZW50U3R5bGVUeXBlPSJ0ZXh0L2NzcyIgaGVpZ2h0PSI5NDRweCIgcHJlc2VydmVBc3BlY3RSYXRpbz0ibm9uZSIgc3R5bGU9IndpZHRoOjM1NDFweDtoZWlnaHQ6OTQ0cHg7YmFja2dyb3VuZDojRkZGRkZGOyIgdmVyc2lvbj0iMS4xIiB2aWV3Qm94PSIwIDAgMzU0MSA5NDQiIHdpZHRoPSIzNTQxcHgiIHpvb21BbmRQYW49Im1hZ25pZnkiPjxkZWZzLz48Zz48IS0tY2x1c3RlciBDbGllbnQtLT48ZyBpZD0iY2x1c3Rlcl9DbGllbnQiPjxwYXRoIGQ9Ik04LjUsNiBMNTEuNSw2IEEzLjc1LDMuNzUgMCAwIDEgNTQsOC41IEw2MSwyNi45ODQ0IEw5MzMuNSwyNi45ODQ0IEEyLjUsMi41IDAgMCAxIDkzNiwyOS40ODQ0IEw5MzYsNTM4LjUgQTIuNSwyLjUgMCAwIDEgOTMzLjUsNTQxIEw4LjUsNTQxIEEyLjUsMi41IDAgMCAxIDYsNTM4LjUgTDYsOC41IEEyLjUsMi41IDAgMCAxIDguNSw2ICIgZmlsbD0ibm9uZSIgc3R5bGU9InN0cm9rZTojMDAwMDAwO3N0cm9rZS13aWR0aDoxLjU7Ii8+PGxpbmUgc3R5bGU9InN0cm9rZTojMDAwMDAwO3N0cm9rZS13aWR0aDoxLjU7IiB4MT0iNiIgeDI9IjYxIiB5MT0iMjYuOTg0NCIgeTI9IjI2Ljk4NDQiLz48dGV4dCBmaWxsPSIjMDAwMDAwIiBmb250LWZhbWlseT0ic2Fucy1zZXJpZiIgZm9udC1zaXplPSIxNCIgZm9udC13ZWlnaHQ9ImJvbGQiIGxlbmd0aEFkanVzdD0ic3BhY2luZyIgdGV4dExlbmd0aD0iNDIiIHg9IjEwIiB5PSIyMS4yMzQ0Ij5DbGllbnQ8L3RleHQ+PC9nPjwhLS1jbHVzdGVyIFNlcnZlci0tPjxnIGlkPSJjbHVzdGVyX1NlcnZlciI+PHBhdGggZD0iTTk2Mi41LDUxIEwxMDA1LjUsNTEgQTMuNzUsMy43NSAwIDAgMSAxMDA4LDUzLjUgTDEwMTUsNzEuOTg0NCBMMzUzMS41LDcxLjk4NDQgQTIuNSwyLjUgMCAwIDEgMzUzNCw3NC40ODQ0IEwzNTM0LDkzNC41IEEyLjUsMi41IDAgMCAxIDM1MzEuNSw5MzcgTDk2Mi41LDkzNyBBMi41LDIuNSAwIDAgMSA5NjAsOTM0LjUgTDk2MCw1My41IEEyLjUsMi41IDAgMCAxIDk2Mi41LDUxICIgZmlsbD0ibm9uZSIgc3R5bGU9InN0cm9rZTojMDAwMDAwO3N0cm9rZS13aWR0aDoxLjU7Ii8+PGxpbmUgc3R5bGU9InN0cm9rZTojMDAwMDAwO3N0cm9rZS13aWR0aDoxLjU7IiB4MT0iOTYwIiB4Mj0iMTAxNSIgeTE9IjcxLjk4NDQiIHkyPSI3MS45ODQ0Ii8+PHRleHQgZmlsbD0iIzAwMDAwMCIgZm9udC1mYW1pbHk9InNhbnMtc2VyaWYiIGZvbnQtc2l6ZT0iMTQiIGZvbnQtd2VpZ2h0PSJib2xkIiBsZW5ndGhBZGp1c3Q9InNwYWNpbmciIHRleHRMZW5ndGg9IjQyIiB4PSI5NjQiIHk9IjY2LjIzNDQiPlNlcnZlcjwvdGV4dD48L2c+PCEtLWNsYXNzIENsaWVudC0tPjxnIGlkPSJlbGVtX0NsaWVudCI+PHJlY3QgY29kZUxpbmU9IjIiIGZpbGw9IiNGMUYxRjEiIGhlaWdodD0iMjcyLjc2NTYiIGlkPSJDbGllbnQiIHJ4PSIyLjUiIHJ5PSIyLjUiIHN0eWxlPSJzdHJva2U6IzE4MTgxODtzdHJva2Utd2lkdGg6MC41OyIgd2lkdGg9IjMyNyIgeD0iMzAxLjUiIHk9IjM5Ii8+PGVsbGlwc2UgY3g9IjQzOS43NSIgY3k9IjU1IiBmaWxsPSIjQUREMUIyIiByeD0iMTEiIHJ5PSIxMSIgc3R5bGU9InN0cm9rZTojMTgxODE4O3N0cm9rZS13aWR0aDoxLjA7Ii8+PHBhdGggZD0iTTQzNy4zNzUsNTkuMjUgTDQzNy4zNzUsNjEgTDQ0Mi4zMTI1LDYxIEw0NDIuMzEyNSw1OS4yNSBMNDM3LjM3NSw1OS4yNSBaIE00MzguMDYyNSw1OS45Mzc1IFE0MzguMDYyNSw1OS45Mzc1IDQzOC4wNjI1LDUwLjc1IEw0MzYuMzEyNSw1MC43NSBRNDM2LjMxMjUsNTAuNzUgNDM2LjMxMjUsNTkuOTM3NSBMNDM4LjA2MjUsNTkuOTM3NSBaIE00NDEuNjI1LDU5LjkzNzUgTDQ0My4zNzUsNTkuOTM3NSBRNDQzLjM3NSw1OS45Mzc1IDQ0My4zNzUsNTcuMTI1IEw0NDEuNjI1LDU3LjEyNSBRNDQxLjYyNSw1Ny4xMjUgNDQxLjYyNSw1OS45Mzc1IFogTTQ0MS42MjUsNTAuNzUgUTQ0MS42MjUsNTAuNzUgNDQxLjYyNSw1My41NjI1IEw0NDMuMzc1LDUzLjU2MjUgUTQ0My4zNzUsNTMuNTYyNSA0NDMuMzc1LDUwLjc1IEw0NDEuNjI1LDUwLjc1IFogTTQzNy4zNzUsNTEuNDM3NSBMNDQyLjMxMjUsNTEuNDM3NSBMNDQyLjMxMjUsNDkuNjg3NSBMNDM3LjM3NSw0OS42ODc1IEw0MzcuMzc1LDUxLjQzNzUgWiAiIGZpbGw9IiMwMDAwMDAiLz48dGV4dCBmaWxsPSIjMDAwMDAwIiBmb250LWZhbWlseT0ic2Fucy1zZXJpZiIgZm9udC1zaXplPSIxNCIgbGVuZ3RoQWRqdXN0PSJzcGFjaW5nIiB0ZXh0TGVuZ3RoPSI0MiIgeD0iNDYwLjI1IiB5PSI2MC43NDIyIj5DbGllbnQ8L3RleHQ+PGxpbmUgc3R5bGU9InN0cm9rZTojMTgxODE4O3N0cm9rZS13aWR0aDowLjU7IiB4MT0iMzAyLjUiIHgyPSI2MjcuNSIgeTE9IjcxIiB5Mj0iNzEiLz48cmVjdCBmaWxsPSJub25lIiBoZWlnaHQ9IjYiIHN0eWxlPSJzdHJva2U6I0M4MjkzMDtzdHJva2Utd2lkdGg6MS4wOyIgd2lkdGg9IjYiIHg9IjMwOS41IiB5PSI4MC45OTIyIi8+PHRleHQgZmlsbD0iIzAwMDAwMCIgZm9udC1mYW1pbHk9InNhbnMtc2VyaWYiIGZvbnQtc2l6ZT0iMTQiIGxlbmd0aEFkanVzdD0ic3BhY2luZyIgdGV4dExlbmd0aD0iNjMiIHg9IjMyMS41IiB5PSI4OC4yMzQ0Ij5ob3N0OiBzdHI8L3RleHQ+PHJlY3QgZmlsbD0ibm9uZSIgaGVpZ2h0PSI2IiBzdHlsZT0ic3Ryb2tlOiNDODI5MzA7c3Ryb2tlLXdpZHRoOjEuMDsiIHdpZHRoPSI2IiB4PSIzMDkuNSIgeT0iOTUuOTc2NiIvPjx0ZXh0IGZpbGw9IiMwMDAwMDAiIGZvbnQtZmFtaWx5PSJzYW5zLXNlcmlmIiBmb250LXNpemU9IjE0IiBsZW5ndGhBZGp1c3Q9InNwYWNpbmciIHRleHRMZW5ndGg9IjYzIiB4PSIzMjEuNSIgeT0iMTAzLjIxODgiPnBvcnQ6IGludDwvdGV4dD48cmVjdCBmaWxsPSJub25lIiBoZWlnaHQ9IjYiIHN0eWxlPSJzdHJva2U6I0M4MjkzMDtzdHJva2Utd2lkdGg6MS4wOyIgd2lkdGg9IjYiIHg9IjMwOS41IiB5PSIxMTAuOTYwOSIvPjx0ZXh0IGZpbGw9IiMwMDAwMDAiIGZvbnQtZmFtaWx5PSJzYW5zLXNlcmlmIiBmb250LXNpemU9IjE0IiBsZW5ndGhBZGp1c3Q9InNwYWNpbmciIHRleHRMZW5ndGg9Ijk4IiB4PSIzMjEuNSIgeT0iMTE4LjIwMzEiPnNvY2tldDogc29ja2V0PC90ZXh0PjxyZWN0IGZpbGw9Im5vbmUiIGhlaWdodD0iNiIgc3R5bGU9InN0cm9rZTojQzgyOTMwO3N0cm9rZS13aWR0aDoxLjA7IiB3aWR0aD0iNiIgeD0iMzA5LjUiIHk9IjEyNS45NDUzIi8+PHRleHQgZmlsbD0iIzAwMDAwMCIgZm9udC1mYW1pbHk9InNhbnMtc2VyaWYiIGZvbnQtc2l6ZT0iMTQiIGxlbmd0aEFkanVzdD0ic3BhY2luZyIgdGV4dExlbmd0aD0iNjMiIHg9IjMyMS41IiB5PSIxMzMuMTg3NSI+cm9sZTogaW50PC90ZXh0PjxyZWN0IGZpbGw9Im5vbmUiIGhlaWdodD0iNiIgc3R5bGU9InN0cm9rZTojQzgyOTMwO3N0cm9rZS13aWR0aDoxLjA7IiB3aWR0aD0iNiIgeD0iMzA5LjUiIHk9IjE0MC45Mjk3Ii8+PHRleHQgZmlsbD0iIzAwMDAwMCIgZm9udC1mYW1pbHk9InNhbnMtc2VyaWYiIGZvbnQtc2l6ZT0iMTQiIGxlbmd0aEFkanVzdD0ic3BhY2luZyIgdGV4dExlbmd0aD0iODQiIHg9IjMyMS41IiB5PSIxNDguMTcxOSI+dXNlcl9pZDogaW50PC90ZXh0PjxyZWN0IGZpbGw9Im5vbmUiIGhlaWdodD0iNiIgc3R5bGU9InN0cm9rZTojQzgyOTMwO3N0cm9rZS13aWR0aDoxLjA7IiB3aWR0aD0iNiIgeD0iMzA5LjUiIHk9IjE1NS45MTQxIi8+PHRleHQgZmlsbD0iIzAwMDAwMCIgZm9udC1mYW1pbHk9InNhbnMtc2VyaWYiIGZvbnQtc2l6ZT0iMTQiIGxlbmd0aEFkanVzdD0ic3BhY2luZyIgdGV4dExlbmd0aD0iMTc2IiB4PSIzMjEuNSIgeT0iMTYzLjE1NjMiPm1lbnVfZGlzcGxheTogTWVudURpc3BsYXk8L3RleHQ+PHJlY3QgZmlsbD0ibm9uZSIgaGVpZ2h0PSI2IiBzdHlsZT0ic3Ryb2tlOiNDODI5MzA7c3Ryb2tlLXdpZHRoOjEuMDsiIHdpZHRoPSI2IiB4PSIzMDkuNSIgeT0iMTcwLjg5ODQiLz48dGV4dCBmaWxsPSIjMDAwMDAwIiBmb250LWZhbWlseT0ic2Fucy1zZXJpZiIgZm9udC1zaXplPSIxNCIgbGVuZ3RoQWRqdXN0PSJzcGFjaW5nIiB0ZXh0TGVuZ3RoPSIxNzUiIHg9IjMyMS41IiB5PSIxNzguMTQwNiI+cmVxdWVzdF9kYXRhOiBSZXF1ZXN0RGF0YTwvdGV4dD48cmVjdCBmaWxsPSJub25lIiBoZWlnaHQ9IjYiIHN0eWxlPSJzdHJva2U6I0M4MjkzMDtzdHJva2Utd2lkdGg6MS4wOyIgd2lkdGg9IjYiIHg9IjMwOS41IiB5PSIxODUuODgyOCIvPjx0ZXh0IGZpbGw9IiMwMDAwMDAiIGZvbnQtZmFtaWx5PSJzYW5zLXNlcmlmIiBmb250LXNpemU9IjE0IiBsZW5ndGhBZGp1c3Q9InNwYWNpbmciIHRleHRMZW5ndGg9IjMwMSIgeD0iMzIxLjUiIHk9IjE5My4xMjUiPm5vdGlmaWNhdGlvbl9saXN0ZW5lcjogTm90aWZpY2F0aW9uTGlzdGVuZXI8L3RleHQ+PHJlY3QgZmlsbD0ibm9uZSIgaGVpZ2h0PSI2IiBzdHlsZT0ic3Ryb2tlOiNDODI5MzA7c3Ryb2tlLXdpZHRoOjEuMDsiIHdpZHRoPSI2IiB4PSIzMDkuNSIgeT0iMjAwLjg2NzIiLz48dGV4dCBmaWxsPSIjMDAwMDAwIiBmb250LWZhbWlseT0ic2Fucy1zZXJpZiIgZm9udC1zaXplPSIxNCIgbGVuZ3RoQWRqdXN0PSJzcGFjaW5nIiB0ZXh0TGVuZ3RoPSIyNTkiIHg9IjMyMS41IiB5PSIyMDguMTA5NCI+bm90aWZpY2F0aW9uX3RocmVhZDogdGhyZWFkaW5nLlRocmVhZDwvdGV4dD48bGluZSBzdHlsZT0ic3Ryb2tlOiMxODE4MTg7c3Ryb2tlLXdpZHRoOjAuNTsiIHgxPSIzMDIuNSIgeDI9IjYyNy41IiB5MT0iMjEzLjg1OTQiIHkyPSIyMTMuODU5NCIvPjx0ZXh0IGZpbGw9IiMwMDAwMDAiIGZvbnQtZmFtaWx5PSJzYW5zLXNlcmlmIiBmb250LXNpemU9IjE0IiBsZW5ndGhBZGp1c3Q9InNwYWNpbmciIHRleHRMZW5ndGg9IjIxMiIgeD0iMzA3LjUiIHk9IjIzMS4wOTM4Ij5fX2luaXRfXyhob3N0OiBzdHIsIHBvcnQ6IGludCk8L3RleHQ+PHRleHQgZmlsbD0iIzAwMDAwMCIgZm9udC1mYW1pbHk9InNhbnMtc2VyaWYiIGZvbnQtc2l6ZT0iMTQiIGxlbmd0aEFkanVzdD0ic3BhY2luZyIgdGV4dExlbmd0aD0iMTg0IiB4PSIzMDcuNSIgeT0iMjQ2LjA3ODEiPl9jcmVhdGVfc29ja2V0KCkgLSZndDsgc29ja2V0PC90ZXh0Pjx0ZXh0IGZpbGw9IiMwMDAwMDAiIGZvbnQtZmFtaWx5PSJzYW5zLXNlcmlmIiBmb250LXNpemU9IjE0IiBsZW5ndGhBZGp1c3Q9InNwYWNpbmciIHRleHRMZW5ndGg9IjI0NyIgeD0iMzA3LjUiIHk9IjI2MS4wNjI1Ij5zZW5kX3JlcXVlc3QocmVxdWVzdDogZGljdCkgLSZndDsgZGljdDwvdGV4dD48dGV4dCBmaWxsPSIjMDAwMDAwIiBmb250LWZhbWlseT0ic2Fucy1zZXJpZiIgZm9udC1zaXplPSIxNCIgbGVuZ3RoQWRqdXN0PSJzcGFjaW5nIiB0ZXh0TGVuZ3RoPSIxMDciIHg9IjMwNy41IiB5PSIyNzYuMDQ2OSI+bG9naW4oKSAtJmd0OyBib29sPC90ZXh0Pjx0ZXh0IGZpbGw9IiMwMDAwMDAiIGZvbnQtZmFtaWx5PSJzYW5zLXNlcmlmIiBmb250LXNpemU9IjE0IiBsZW5ndGhBZGp1c3Q9InNwYWNpbmciIHRleHRMZW5ndGg9IjIyMCIgeD0iMzA3LjUiIHk9IjI5MS4wMzEzIj5nZXRfcm9sZV9uYW1lKHJvbGU6IGludCkgLSZndDsgc3RyPC90ZXh0Pjx0ZXh0IGZpbGw9IiMwMDAwMDAiIGZvbnQtZmFtaWx5PSJzYW5zLXNlcmlmIiBmb250LXNpemU9IjE0IiBsZW5ndGhBZGp1c3Q9InNwYWNpbmciIHRleHRMZW5ndGg9IjgwIiB4PSIzMDcuNSIgeT0iMzA2LjAxNTYiPm1haW5fbG9vcCgpPC90ZXh0PjwvZz48IS0tY2xhc3MgTWVudURpc3BsYXktLT48ZyBpZD0iZWxlbV9NZW51RGlzcGxheSI+PHJlY3QgY29kZUxpbmU9IjIwIiBmaWxsPSIjRjFGMUYxIiBoZWlnaHQ9IjEzNy45MDYzIiBpZD0iTWVudURpc3BsYXkiIHJ4PSIyLjUiIHJ5PSIyLjUiIHN0eWxlPSJzdHJva2U6IzE4MTgxODtzdHJva2Utd2lkdGg6MC41OyIgd2lkdGg9IjE4NCIgeD0iMjIiIHk9IjM4NyIvPjxlbGxpcHNlIGN4PSI3MS4yNSIgY3k9IjQwMyIgZmlsbD0iI0FERDFCMiIgcng9IjExIiByeT0iMTEiIHN0eWxlPSJzdHJva2U6IzE4MTgxODtzdHJva2Utd2lkdGg6MS4wOyIvPjxwYXRoIGQ9Ik02OC44NzUsNDA3LjI1IEw2OC44NzUsNDA5IEw3My44MTI1LDQwOSBMNzMuODEyNSw0MDcuMjUgTDY4Ljg3NSw0MDcuMjUgWiBNNjkuNTYyNSw0MDcuOTM3NSBRNjkuNTYyNSw0MDcuOTM3NSA2OS41NjI1LDM5OC43NSBMNjcuODEyNSwzOTguNzUgUTY3LjgxMjUsMzk4Ljc1IDY3LjgxMjUsNDA3LjkzNzUgTDY5LjU2MjUsNDA3LjkzNzUgWiBNNzMuMTI1LDQwNy45Mzc1IEw3NC44NzUsNDA3LjkzNzUgUTc0Ljg3NSw0MDcuOTM3NSA3NC44NzUsNDA1LjEyNSBMNzMuMTI1LDQwNS4xMjUgUTczLjEyNSw0MDUuMTI1IDczLjEyNSw0MDcuOTM3NSBaIE03My4xMjUsMzk4Ljc1IFE3My4xMjUsMzk4Ljc1IDczLjEyNSw0MDEuNTYyNSBMNzQuODc1LDQwMS41NjI1IFE3NC44NzUsNDAxLjU2MjUgNzQuODc1LDM5OC43NSBMNzMuMTI1LDM5OC43NSBaIE02OC44NzUsMzk5LjQzNzUgTDczLjgxMjUsMzk5LjQzNzUgTDczLjgxMjUsMzk3LjY4NzUgTDY4Ljg3NSwzOTcuNjg3NSBMNjguODc1LDM5OS40Mzc1IFogIiBmaWxsPSIjMDAwMDAwIi8+PHRleHQgZmlsbD0iIzAwMDAwMCIgZm9udC1mYW1pbHk9InNhbnMtc2VyaWYiIGZvbnQtc2l6ZT0iMTQiIGxlbmd0aEFkanVzdD0ic3BhY2luZyIgdGV4dExlbmd0aD0iNzciIHg9IjkxLjc1IiB5PSI0MDguNzQyMiI+TWVudURpc3BsYXk8L3RleHQ+PGxpbmUgc3R5bGU9InN0cm9rZTojMTgxODE4O3N0cm9rZS13aWR0aDowLjU7IiB4MT0iMjMiIHgyPSIyMDUiIHkxPSI0MTkiIHkyPSI0MTkiLz48cmVjdCBmaWxsPSJub25lIiBoZWlnaHQ9IjYiIHN0eWxlPSJzdHJva2U6I0M4MjkzMDtzdHJva2Utd2lkdGg6MS4wOyIgd2lkdGg9IjYiIHg9IjMwIiB5PSI0MjguOTkyMiIvPjx0ZXh0IGZpbGw9IiMwMDAwMDAiIGZvbnQtZmFtaWx5PSJzYW5zLXNlcmlmIiBmb250LXNpemU9IjE0IiBsZW5ndGhBZGp1c3Q9InNwYWNpbmciIHRleHRMZW5ndGg9Ijk4IiB4PSI0MiIgeT0iNDM2LjIzNDQiPmNsaWVudDogQ2xpZW50PC90ZXh0PjxsaW5lIHN0eWxlPSJzdHJva2U6IzE4MTgxODtzdHJva2Utd2lkdGg6MC41OyIgeDE9IjIzIiB4Mj0iMjA1IiB5MT0iNDQxLjk4NDQiIHkyPSI0NDEuOTg0NCIvPjx0ZXh0IGZpbGw9IiMwMDAwMDAiIGZvbnQtZmFtaWx5PSJzYW5zLXNlcmlmIiBmb250LXNpemU9IjE0IiBsZW5ndGhBZGp1c3Q9InNwYWNpbmciIHRleHRMZW5ndGg9IjE3MCIgeD0iMjgiIHk9IjQ1OS4yMTg4Ij5fX2luaXRfXyhjbGllbnQ6IENsaWVudCk8L3RleHQ+PHRleHQgZmlsbD0iIzAwMDAwMCIgZm9udC1mYW1pbHk9InNhbnMtc2VyaWYiIGZvbnQtc2l6ZT0iMTQiIGxlbmd0aEFkanVzdD0ic3BhY2luZyIgdGV4dExlbmd0aD0iMTY0IiB4PSIyOCIgeT0iNDc0LjIwMzEiPmRpc3BsYXlfbWVudShyb2xlOiBpbnQpPC90ZXh0Pjx0ZXh0IGZpbGw9IiMwMDAwMDAiIGZvbnQtZmFtaWx5PSJzYW5zLXNlcmlmIiBmb250LXNpemU9IjE0IiBsZW5ndGhBZGp1c3Q9InNwYWNpbmciIHRleHRMZW5ndGg9IjE1MSIgeD0iMjgiIHk9IjQ4OS4xODc1Ij5fZGlzcGxheV9hZG1pbl9tZW51KCk8L3RleHQ+PHRleHQgZmlsbD0iIzAwMDAwMCIgZm9udC1mYW1pbHk9InNhbnMtc2VyaWYiIGZvbnQtc2l6ZT0iMTQiIGxlbmd0aEFkanVzdD0ic3BhY2luZyIgdGV4dExlbmd0aD0iMTQzIiB4PSIyOCIgeT0iNTA0LjE3MTkiPl9kaXNwbGF5X2NoZWZfbWVudSgpPC90ZXh0Pjx0ZXh0IGZpbGw9IiMwMDAwMDAiIGZvbnQtZmFtaWx5PSJzYW5zLXNlcmlmIiBmb250LXNpemU9IjE0IiBsZW5ndGhBZGp1c3Q9InNwYWNpbmciIHRleHRMZW5ndGg9IjE3MiIgeD0iMjgiIHk9IjUxOS4xNTYzIj5fZGlzcGxheV9lbXBsb3llZV9tZW51KCk8L3RleHQ+PC9nPjwhLS1jbGFzcyBSZXF1ZXN0RGF0YS0tPjxnIGlkPSJlbGVtX1JlcXVlc3REYXRhIj48cmVjdCBjb2RlTGluZT0iMjkiIGZpbGw9IiNGMUYxRjEiIGhlaWdodD0iMTM3LjkwNjMiIGlkPSJSZXF1ZXN0RGF0YSIgcng9IjIuNSIgcnk9IjIuNSIgc3R5bGU9InN0cm9rZTojMTgxODE4O3N0cm9rZS13aWR0aDowLjU7IiB3aWR0aD0iNDQ4IiB4PSIyNDEiIHk9IjM4NyIvPjxlbGxpcHNlIGN4PSI0MjIuMjUiIGN5PSI0MDMiIGZpbGw9IiNBREQxQjIiIHJ4PSIxMSIgcnk9IjExIiBzdHlsZT0ic3Ryb2tlOiMxODE4MTg7c3Ryb2tlLXdpZHRoOjEuMDsiLz48cGF0aCBkPSJNNDE5Ljg3NSw0MDcuMjUgTDQxOS44NzUsNDA5IEw0MjQuODEyNSw0MDkgTDQyNC44MTI1LDQwNy4yNSBMNDE5Ljg3NSw0MDcuMjUgWiBNNDIwLjU2MjUsNDA3LjkzNzUgUTQyMC41NjI1LDQwNy45Mzc1IDQyMC41NjI1LDM5OC43NSBMNDE4LjgxMjUsMzk4Ljc1IFE0MTguODEyNSwzOTguNzUgNDE4LjgxMjUsNDA3LjkzNzUgTDQyMC41NjI1LDQwNy45Mzc1IFogTTQyNC4xMjUsNDA3LjkzNzUgTDQyNS44NzUsNDA3LjkzNzUgUTQyNS44NzUsNDA3LjkzNzUgNDI1Ljg3NSw0MDUuMTI1IEw0MjQuMTI1LDQwNS4xMjUgUTQyNC4xMjUsNDA1LjEyNSA0MjQuMTI1LDQwNy45Mzc1IFogTTQyNC4xMjUsMzk4Ljc1IFE0MjQuMTI1LDM5OC43NSA0MjQuMTI1LDQwMS41NjI1IEw0MjUuODc1LDQwMS41NjI1IFE0MjUuODc1LDQwMS41NjI1IDQyNS44NzUsMzk4Ljc1IEw0MjQuMTI1LDM5OC43NSBaIE00MTkuODc1LDM5OS40Mzc1IEw0MjQuODEyNSwzOTkuNDM3NSBMNDI0LjgxMjUsMzk3LjY4NzUgTDQxOS44NzUsMzk3LjY4NzUgTDQxOS44NzUsMzk5LjQzNzUgWiAiIGZpbGw9IiMwMDAwMDAiLz48dGV4dCBmaWxsPSIjMDAwMDAwIiBmb250LWZhbWlseT0ic2Fucy1zZXJpZiIgZm9udC1zaXplPSIxNCIgbGVuZ3RoQWRqdXN0PSJzcGFjaW5nIiB0ZXh0TGVuZ3RoPSI3NyIgeD0iNDQyLjc1IiB5PSI0MDguNzQyMiI+UmVxdWVzdERhdGE8L3RleHQ+PGxpbmUgc3R5bGU9InN0cm9rZTojMTgxODE4O3N0cm9rZS13aWR0aDowLjU7IiB4MT0iMjQyIiB4Mj0iNjg4IiB5MT0iNDE5IiB5Mj0iNDE5Ii8+PHJlY3QgZmlsbD0ibm9uZSIgaGVpZ2h0PSI2IiBzdHlsZT0ic3Ryb2tlOiNDODI5MzA7c3Ryb2tlLXdpZHRoOjEuMDsiIHdpZHRoPSI2IiB4PSIyNDkiIHk9IjQyOC45OTIyIi8+PHRleHQgZmlsbD0iIzAwMDAwMCIgZm9udC1mYW1pbHk9InNhbnMtc2VyaWYiIGZvbnQtc2l6ZT0iMTQiIGxlbmd0aEFkanVzdD0ic3BhY2luZyIgdGV4dExlbmd0aD0iOTgiIHg9IjI2MSIgeT0iNDM2LjIzNDQiPmNsaWVudDogQ2xpZW50PC90ZXh0PjxsaW5lIHN0eWxlPSJzdHJva2U6IzE4MTgxODtzdHJva2Utd2lkdGg6MC41OyIgeDE9IjI0MiIgeDI9IjY4OCIgeTE9IjQ0MS45ODQ0IiB5Mj0iNDQxLjk4NDQiLz48dGV4dCBmaWxsPSIjMDAwMDAwIiBmb250LWZhbWlseT0ic2Fucy1zZXJpZiIgZm9udC1zaXplPSIxNCIgbGVuZ3RoQWRqdXN0PSJzcGFjaW5nIiB0ZXh0TGVuZ3RoPSIxNzAiIHg9IjI0NyIgeT0iNDU5LjIxODgiPl9faW5pdF9fKGNsaWVudDogQ2xpZW50KTwvdGV4dD48dGV4dCBmaWxsPSIjMDAwMDAwIiBmb250LWZhbWlseT0ic2Fucy1zZXJpZiIgZm9udC1zaXplPSIxNCIgbGVuZ3RoQWRqdXN0PSJzcGFjaW5nIiB0ZXh0TGVuZ3RoPSI0MzYiIHg9IjI0NyIgeT0iNDc0LjIwMzEiPmdldF9yZXF1ZXN0X2RhdGEoYWN0aW9uOiBpbnQsIHJvbGU6IGludCwgdXNlcl9pZDogaW50KSAtJmd0OyBkaWN0PC90ZXh0Pjx0ZXh0IGZpbGw9IiMwMDAwMDAiIGZvbnQtZmFtaWx5PSJzYW5zLXNlcmlmIiBmb250LXNpemU9IjE0IiBsZW5ndGhBZGp1c3Q9InNwYWNpbmciIHRleHRMZW5ndGg9IjMxMSIgeD0iMjQ3IiB5PSI0ODkuMTg3NSI+X2dldF9hZG1pbl9yZXF1ZXN0X2RhdGEoYWN0aW9uOiBpbnQpIC0mZ3Q7IGRpY3Q8L3RleHQ+PHRleHQgZmlsbD0iIzAwMDAwMCIgZm9udC1mYW1pbHk9InNhbnMtc2VyaWYiIGZvbnQtc2l6ZT0iMTQiIGxlbmd0aEFkanVzdD0ic3BhY2luZyIgdGV4dExlbmd0aD0iMzAzIiB4PSIyNDciIHk9IjUwNC4xNzE5Ij5fZ2V0X2NoZWZfcmVxdWVzdF9kYXRhKGFjdGlvbjogaW50KSAtJmd0OyBkaWN0PC90ZXh0Pjx0ZXh0IGZpbGw9IiMwMDAwMDAiIGZvbnQtZmFtaWx5PSJzYW5zLXNlcmlmIiBmb250LXNpemU9IjE0IiBsZW5ndGhBZGp1c3Q9InNwYWNpbmciIHRleHRMZW5ndGg9IjQzMCIgeD0iMjQ3IiB5PSI1MTkuMTU2MyI+X2dldF9lbXBsb3llZV9yZXF1ZXN0X2RhdGEoYWN0aW9uOiBpbnQsIHVzZXJfaWQ6IGludCkgLSZndDsgZGljdDwvdGV4dD48L2c+PCEtLWNsYXNzIE5vdGlmaWNhdGlvbkxpc3RlbmVyLS0+PGcgaWQ9ImVsZW1fTm90aWZpY2F0aW9uTGlzdGVuZXIiPjxyZWN0IGNvZGVMaW5lPSIzOCIgZmlsbD0iI0YxRjFGMSIgaGVpZ2h0PSI5Mi45NTMxIiBpZD0iTm90aWZpY2F0aW9uTGlzdGVuZXIiIHJ4PSIyLjUiIHJ5PSIyLjUiIHN0eWxlPSJzdHJva2U6IzE4MTgxODtzdHJva2Utd2lkdGg6MC41OyIgd2lkdGg9IjE5NiIgeD0iNzI0IiB5PSI0MDkuNSIvPjxlbGxpcHNlIGN4PSI3NDkuOCIgY3k9IjQyNS41IiBmaWxsPSIjQUREMUIyIiByeD0iMTEiIHJ5PSIxMSIgc3R5bGU9InN0cm9rZTojMTgxODE4O3N0cm9rZS13aWR0aDoxLjA7Ii8+PHBhdGggZD0iTTc0Ny40MjUsNDI5Ljc1IEw3NDcuNDI1LDQzMS41IEw3NTIuMzYyNSw0MzEuNSBMNzUyLjM2MjUsNDI5Ljc1IEw3NDcuNDI1LDQyOS43NSBaIE03NDguMTEyNSw0MzAuNDM3NSBRNzQ4LjExMjUsNDMwLjQzNzUgNzQ4LjExMjUsNDIxLjI1IEw3NDYuMzYyNSw0MjEuMjUgUTc0Ni4zNjI1LDQyMS4yNSA3NDYuMzYyNSw0MzAuNDM3NSBMNzQ4LjExMjUsNDMwLjQzNzUgWiBNNzUxLjY3NSw0MzAuNDM3NSBMNzUzLjQyNSw0MzAuNDM3NSBRNzUzLjQyNSw0MzAuNDM3NSA3NTMuNDI1LDQyNy42MjUgTDc1MS42NzUsNDI3LjYyNSBRNzUxLjY3NSw0MjcuNjI1IDc1MS42NzUsNDMwLjQzNzUgWiBNNzUxLjY3NSw0MjEuMjUgUTc1MS42NzUsNDIxLjI1IDc1MS42NzUsNDI0LjA2MjUgTDc1My40MjUsNDI0LjA2MjUgUTc1My40MjUsNDI0LjA2MjUgNzUzLjQyNSw0MjEuMjUgTDc1MS42NzUsNDIxLjI1IFogTTc0Ny40MjUsNDIxLjkzNzUgTDc1Mi4zNjI1LDQyMS45Mzc1IEw3NTIuMzYyNSw0MjAuMTg3NSBMNzQ3LjQyNSw0MjAuMTg3NSBMNzQ3LjQyNSw0MjEuOTM3NSBaICIgZmlsbD0iIzAwMDAwMCIvPjx0ZXh0IGZpbGw9IiMwMDAwMDAiIGZvbnQtZmFtaWx5PSJzYW5zLXNlcmlmIiBmb250LXNpemU9IjE0IiBsZW5ndGhBZGp1c3Q9InNwYWNpbmciIHRleHRMZW5ndGg9IjE0MCIgeD0iNzY2LjIiIHk9IjQzMS4yNDIyIj5Ob3RpZmljYXRpb25MaXN0ZW5lcjwvdGV4dD48bGluZSBzdHlsZT0ic3Ryb2tlOiMxODE4MTg7c3Ryb2tlLXdpZHRoOjAuNTsiIHgxPSI3MjUiIHgyPSI5MTkiIHkxPSI0NDEuNSIgeTI9IjQ0MS41Ii8+PHJlY3QgZmlsbD0ibm9uZSIgaGVpZ2h0PSI2IiBzdHlsZT0ic3Ryb2tlOiNDODI5MzA7c3Ryb2tlLXdpZHRoOjEuMDsiIHdpZHRoPSI2IiB4PSI3MzIiIHk9IjQ1MS40OTIyIi8+PHRleHQgZmlsbD0iIzAwMDAwMCIgZm9udC1mYW1pbHk9InNhbnMtc2VyaWYiIGZvbnQtc2l6ZT0iMTQiIGxlbmd0aEFkanVzdD0ic3BhY2luZyIgdGV4dExlbmd0aD0iOTgiIHg9Ijc0NCIgeT0iNDU4LjczNDQiPnNvY2tldDogc29ja2V0PC90ZXh0PjxsaW5lIHN0eWxlPSJzdHJva2U6IzE4MTgxODtzdHJva2Utd2lkdGg6MC41OyIgeDE9IjcyNSIgeDI9IjkxOSIgeTE9IjQ2NC40ODQ0IiB5Mj0iNDY0LjQ4NDQiLz48dGV4dCBmaWxsPSIjMDAwMDAwIiBmb250LWZhbWlseT0ic2Fucy1zZXJpZiIgZm9udC1zaXplPSIxNCIgbGVuZ3RoQWRqdXN0PSJzcGFjaW5nIiB0ZXh0TGVuZ3RoPSIxNzAiIHg9IjczMCIgeT0iNDgxLjcxODgiPl9faW5pdF9fKHNvY2tldDogc29ja2V0KTwvdGV4dD48dGV4dCBmaWxsPSIjMDAwMDAwIiBmb250LWZhbWlseT0ic2Fucy1zZXJpZiIgZm9udC1zaXplPSIxNCIgbGVuZ3RoQWRqdXN0PSJzcGFjaW5nIiB0ZXh0TGVuZ3RoPSIxODQiIHg9IjczMCIgeT0iNDk2LjcwMzEiPmxpc3Rlbl9mb3Jfbm90aWZpY2F0aW9ucygpPC90ZXh0PjwvZz48IS0tY2xhc3MgU2VydmVyLS0+PGcgaWQ9ImVsZW1fU2VydmVyIj48cmVjdCBjb2RlTGluZT0iNTAiIGZpbGw9IiNGMUYxRjEiIGhlaWdodD0iMTgyLjg1OTQiIGlkPSJTZXJ2ZXIiIHJ4PSIyLjUiIHJ5PSIyLjUiIHN0eWxlPSJzdHJva2U6IzE4MTgxODtzdHJva2Utd2lkdGg6MC41OyIgd2lkdGg9IjQxNCIgeD0iMjEwMyIgeT0iODQiLz48ZWxsaXBzZSBjeD0iMjI4NC43NSIgY3k9IjEwMCIgZmlsbD0iI0FERDFCMiIgcng9IjExIiByeT0iMTEiIHN0eWxlPSJzdHJva2U6IzE4MTgxODtzdHJva2Utd2lkdGg6MS4wOyIvPjxwYXRoIGQ9Ik0yMjgyLjM3NSwxMDQuMjUgTDIyODIuMzc1LDEwNiBMMjI4Ny4zMTI1LDEwNiBMMjI4Ny4zMTI1LDEwNC4yNSBMMjI4Mi4zNzUsMTA0LjI1IFogTTIyODMuMDYyNSwxMDQuOTM3NSBRMjI4My4wNjI1LDEwNC45Mzc1IDIyODMuMDYyNSw5NS43NSBMMjI4MS4zMTI1LDk1Ljc1IFEyMjgxLjMxMjUsOTUuNzUgMjI4MS4zMTI1LDEwNC45Mzc1IEwyMjgzLjA2MjUsMTA0LjkzNzUgWiBNMjI4Ni42MjUsMTA0LjkzNzUgTDIyODguMzc1LDEwNC45Mzc1IFEyMjg4LjM3NSwxMDQuOTM3NSAyMjg4LjM3NSwxMDIuMTI1IEwyMjg2LjYyNSwxMDIuMTI1IFEyMjg2LjYyNSwxMDIuMTI1IDIyODYuNjI1LDEwNC45Mzc1IFogTTIyODYuNjI1LDk1Ljc1IFEyMjg2LjYyNSw5NS43NSAyMjg2LjYyNSw5OC41NjI1IEwyMjg4LjM3NSw5OC41NjI1IFEyMjg4LjM3NSw5OC41NjI1IDIyODguMzc1LDk1Ljc1IEwyMjg2LjYyNSw5NS43NSBaIE0yMjgyLjM3NSw5Ni40Mzc1IEwyMjg3LjMxMjUsOTYuNDM3NSBMMjI4Ny4zMTI1LDk0LjY4NzUgTDIyODIuMzc1LDk0LjY4NzUgTDIyODIuMzc1LDk2LjQzNzUgWiAiIGZpbGw9IiMwMDAwMDAiLz48dGV4dCBmaWxsPSIjMDAwMDAwIiBmb250LWZhbWlseT0ic2Fucy1zZXJpZiIgZm9udC1zaXplPSIxNCIgbGVuZ3RoQWRqdXN0PSJzcGFjaW5nIiB0ZXh0TGVuZ3RoPSI0MiIgeD0iMjMwNS4yNSIgeT0iMTA1Ljc0MjIiPlNlcnZlcjwvdGV4dD48bGluZSBzdHlsZT0ic3Ryb2tlOiMxODE4MTg7c3Ryb2tlLXdpZHRoOjAuNTsiIHgxPSIyMTA0IiB4Mj0iMjUxNiIgeTE9IjExNiIgeTI9IjExNiIvPjxyZWN0IGZpbGw9Im5vbmUiIGhlaWdodD0iNiIgc3R5bGU9InN0cm9rZTojQzgyOTMwO3N0cm9rZS13aWR0aDoxLjA7IiB3aWR0aD0iNiIgeD0iMjExMSIgeT0iMTI1Ljk5MjIiLz48dGV4dCBmaWxsPSIjMDAwMDAwIiBmb250LWZhbWlseT0ic2Fucy1zZXJpZiIgZm9udC1zaXplPSIxNCIgbGVuZ3RoQWRqdXN0PSJzcGFjaW5nIiB0ZXh0TGVuZ3RoPSI2MyIgeD0iMjEyMyIgeT0iMTMzLjIzNDQiPmhvc3Q6IHN0cjwvdGV4dD48cmVjdCBmaWxsPSJub25lIiBoZWlnaHQ9IjYiIHN0eWxlPSJzdHJva2U6I0M4MjkzMDtzdHJva2Utd2lkdGg6MS4wOyIgd2lkdGg9IjYiIHg9IjIxMTEiIHk9IjE0MC45NzY2Ii8+PHRleHQgZmlsbD0iIzAwMDAwMCIgZm9udC1mYW1pbHk9InNhbnMtc2VyaWYiIGZvbnQtc2l6ZT0iMTQiIGxlbmd0aEFkanVzdD0ic3BhY2luZyIgdGV4dExlbmd0aD0iNjMiIHg9IjIxMjMiIHk9IjE0OC4yMTg4Ij5wb3J0OiBpbnQ8L3RleHQ+PHJlY3QgZmlsbD0ibm9uZSIgaGVpZ2h0PSI2IiBzdHlsZT0ic3Ryb2tlOiNDODI5MzA7c3Ryb2tlLXdpZHRoOjEuMDsiIHdpZHRoPSI2IiB4PSIyMTExIiB5PSIxNTUuOTYwOSIvPjx0ZXh0IGZpbGw9IiMwMDAwMDAiIGZvbnQtZmFtaWx5PSJzYW5zLXNlcmlmIiBmb250LXNpemU9IjE0IiBsZW5ndGhBZGp1c3Q9InNwYWNpbmciIHRleHRMZW5ndGg9IjkxIiB4PSIyMTIzIiB5PSIxNjMuMjAzMSI+Y2xpZW50czogZGljdDwvdGV4dD48cmVjdCBmaWxsPSJub25lIiBoZWlnaHQ9IjYiIHN0eWxlPSJzdHJva2U6I0M4MjkzMDtzdHJva2Utd2lkdGg6MS4wOyIgd2lkdGg9IjYiIHg9IjIxMTEiIHk9IjE3MC45NDUzIi8+PHRleHQgZmlsbD0iIzAwMDAwMCIgZm9udC1mYW1pbHk9InNhbnMtc2VyaWYiIGZvbnQtc2l6ZT0iMTQiIGxlbmd0aEFkanVzdD0ic3BhY2luZyIgdGV4dExlbmd0aD0iMTEyIiB4PSIyMTIzIiB5PSIxNzguMTg3NSI+ZGI6IERCQ29ubmVjdGlvbjwvdGV4dD48cmVjdCBmaWxsPSJub25lIiBoZWlnaHQ9IjYiIHN0eWxlPSJzdHJva2U6I0M4MjkzMDtzdHJva2Utd2lkdGg6MS4wOyIgd2lkdGg9IjYiIHg9IjIxMTEiIHk9IjE4NS45Mjk3Ii8+PHRleHQgZmlsbD0iIzAwMDAwMCIgZm9udC1mYW1pbHk9InNhbnMtc2VyaWYiIGZvbnQtc2l6ZT0iMTQiIGxlbmd0aEFkanVzdD0ic3BhY2luZyIgdGV4dExlbmd0aD0iMjE3IiB4PSIyMTIzIiB5PSIxOTMuMTcxOSI+cmVxdWVzdF9oYW5kbGVyOiBSZXF1ZXN0SGFuZGxlcjwvdGV4dD48bGluZSBzdHlsZT0ic3Ryb2tlOiMxODE4MTg7c3Ryb2tlLXdpZHRoOjAuNTsiIHgxPSIyMTA0IiB4Mj0iMjUxNiIgeTE9IjE5OC45MjE5IiB5Mj0iMTk4LjkyMTkiLz48dGV4dCBmaWxsPSIjMDAwMDAwIiBmb250LWZhbWlseT0ic2Fucy1zZXJpZiIgZm9udC1zaXplPSIxNCIgbGVuZ3RoQWRqdXN0PSJzcGFjaW5nIiB0ZXh0TGVuZ3RoPSIyMTIiIHg9IjIxMDkiIHk9IjIxNi4xNTYzIj5fX2luaXRfXyhob3N0OiBzdHIsIHBvcnQ6IGludCk8L3RleHQ+PHRleHQgZmlsbD0iIzAwMDAwMCIgZm9udC1mYW1pbHk9InNhbnMtc2VyaWYiIGZvbnQtc2l6ZT0iMTQiIGxlbmd0aEFkanVzdD0ic3BhY2luZyIgdGV4dExlbmd0aD0iMTAwIiB4PSIyMTA5IiB5PSIyMzEuMTQwNiI+c3RhcnRfc2VydmVyKCk8L3RleHQ+PHRleHQgZmlsbD0iIzAwMDAwMCIgZm9udC1mYW1pbHk9InNhbnMtc2VyaWYiIGZvbnQtc2l6ZT0iMTQiIGxlbmd0aEFkanVzdD0ic3BhY2luZyIgdGV4dExlbmd0aD0iNDAxIiB4PSIyMTA5IiB5PSIyNDYuMTI1Ij5oYW5kbGVfY2xpZW50KGNsaWVudF9zb2NrZXQ6IHNvY2tldCwgY2xpZW50X2FkZHJlc3M6IHN0cik8L3RleHQ+PHRleHQgZmlsbD0iIzAwMDAwMCIgZm9udC1mYW1pbHk9InNhbnMtc2VyaWYiIGZvbnQtc2l6ZT0iMTQiIGxlbmd0aEFkanVzdD0ic3BhY2luZyIgdGV4dExlbmd0aD0iNDAyIiB4PSIyMTA5IiB5PSIyNjEuMTA5NCI+X3NlbmRfZXJyb3JfcmVzcG9uc2UoY2xpZW50X3NvY2tldDogc29ja2V0LCBtZXNzYWdlOiBzdHIpPC90ZXh0PjwvZz48IS0tY2xhc3MgUmVxdWVzdEhhbmRsZXItLT48ZyBpZD0iZWxlbV9SZXF1ZXN0SGFuZGxlciI+PHJlY3QgY29kZUxpbmU9IjYyIiBmaWxsPSIjRjFGMUYxIiBoZWlnaHQ9IjE2Ny44NzUiIGlkPSJSZXF1ZXN0SGFuZGxlciIgcng9IjIuNSIgcnk9IjIuNSIgc3R5bGU9InN0cm9rZTojMTgxODE4O3N0cm9rZS13aWR0aDowLjU7IiB3aWR0aD0iNDM0IiB4PSIyMDkzIiB5PSIzNzIiLz48ZWxsaXBzZSBjeD0iMjI1Ni43NSIgY3k9IjM4OCIgZmlsbD0iI0FERDFCMiIgcng9IjExIiByeT0iMTEiIHN0eWxlPSJzdHJva2U6IzE4MTgxODtzdHJva2Utd2lkdGg6MS4wOyIvPjxwYXRoIGQ9Ik0yMjU0LjM3NSwzOTIuMjUgTDIyNTQuMzc1LDM5NCBMMjI1OS4zMTI1LDM5NCBMMjI1OS4zMTI1LDM5Mi4yNSBMMjI1NC4zNzUsMzkyLjI1IFogTTIyNTUuMDYyNSwzOTIuOTM3NSBRMjI1NS4wNjI1LDM5Mi45Mzc1IDIyNTUuMDYyNSwzODMuNzUgTDIyNTMuMzEyNSwzODMuNzUgUTIyNTMuMzEyNSwzODMuNzUgMjI1My4zMTI1LDM5Mi45Mzc1IEwyMjU1LjA2MjUsMzkyLjkzNzUgWiBNMjI1OC42MjUsMzkyLjkzNzUgTDIyNjAuMzc1LDM5Mi45Mzc1IFEyMjYwLjM3NSwzOTIuOTM3NSAyMjYwLjM3NSwzOTAuMTI1IEwyMjU4LjYyNSwzOTAuMTI1IFEyMjU4LjYyNSwzOTAuMTI1IDIyNTguNjI1LDM5Mi45Mzc1IFogTTIyNTguNjI1LDM4My43NSBRMjI1OC42MjUsMzgzLjc1IDIyNTguNjI1LDM4Ni41NjI1IEwyMjYwLjM3NSwzODYuNTYyNSBRMjI2MC4zNzUsMzg2LjU2MjUgMjI2MC4zNzUsMzgzLjc1IEwyMjU4LjYyNSwzODMuNzUgWiBNMjI1NC4zNzUsMzg0LjQzNzUgTDIyNTkuMzEyNSwzODQuNDM3NSBMMjI1OS4zMTI1LDM4Mi42ODc1IEwyMjU0LjM3NSwzODIuNjg3NSBMMjI1NC4zNzUsMzg0LjQzNzUgWiAiIGZpbGw9IiMwMDAwMDAiLz48dGV4dCBmaWxsPSIjMDAwMDAwIiBmb250LWZhbWlseT0ic2Fucy1zZXJpZiIgZm9udC1zaXplPSIxNCIgbGVuZ3RoQWRqdXN0PSJzcGFjaW5nIiB0ZXh0TGVuZ3RoPSI5OCIgeD0iMjI3Ny4yNSIgeT0iMzkzLjc0MjIiPlJlcXVlc3RIYW5kbGVyPC90ZXh0PjxsaW5lIHN0eWxlPSJzdHJva2U6IzE4MTgxODtzdHJva2Utd2lkdGg6MC41OyIgeDE9IjIwOTQiIHgyPSIyNTI2IiB5MT0iNDA0IiB5Mj0iNDA0Ii8+PHJlY3QgZmlsbD0ibm9uZSIgaGVpZ2h0PSI2IiBzdHlsZT0ic3Ryb2tlOiNDODI5MzA7c3Ryb2tlLXdpZHRoOjEuMDsiIHdpZHRoPSI2IiB4PSIyMTAxIiB5PSI0MTMuOTkyMiIvPjx0ZXh0IGZpbGw9IiMwMDAwMDAiIGZvbnQtZmFtaWx5PSJzYW5zLXNlcmlmIiBmb250LXNpemU9IjE0IiBsZW5ndGhBZGp1c3Q9InNwYWNpbmciIHRleHRMZW5ndGg9IjIyMCIgeD0iMjExMyIgeT0iNDIxLjIzNDQiPnVzZXJfbWFuYWdlbWVudDogVXNlck1hbmFnZW1lbnQ8L3RleHQ+PHJlY3QgZmlsbD0ibm9uZSIgaGVpZ2h0PSI2IiBzdHlsZT0ic3Ryb2tlOiNDODI5MzA7c3Ryb2tlLXdpZHRoOjEuMDsiIHdpZHRoPSI2IiB4PSIyMTAxIiB5PSI0MjguOTc2NiIvPjx0ZXh0IGZpbGw9IiMwMDAwMDAiIGZvbnQtZmFtaWx5PSJzYW5zLXNlcmlmIiBmb250LXNpemU9IjE0IiBsZW5ndGhBZGp1c3Q9InNwYWNpbmciIHRleHRMZW5ndGg9IjIyMSIgeD0iMjExMyIgeT0iNDM2LjIxODgiPm1lbnVfbWFuYWdlbWVudDogTWVudU1hbmFnZW1lbnQ8L3RleHQ+PHJlY3QgZmlsbD0ibm9uZSIgaGVpZ2h0PSI2IiBzdHlsZT0ic3Ryb2tlOiNDODI5MzA7c3Ryb2tlLXdpZHRoOjEuMDsiIHdpZHRoPSI2IiB4PSIyMTAxIiB5PSI0NDMuOTYwOSIvPjx0ZXh0IGZpbGw9IiMwMDAwMDAiIGZvbnQtZmFtaWx5PSJzYW5zLXNlcmlmIiBmb250LXNpemU9IjE0IiBsZW5ndGhBZGp1c3Q9InNwYWNpbmciIHRleHRMZW5ndGg9IjI4NyIgeD0iMjExMyIgeT0iNDUxLjIwMzEiPm5vdGlmaWNhdGlvbl9zZXJ2aWNlOiBOb3RpZmljYXRpb25TZXJ2aWNlPC90ZXh0PjxyZWN0IGZpbGw9Im5vbmUiIGhlaWdodD0iNiIgc3R5bGU9InN0cm9rZTojQzgyOTMwO3N0cm9rZS13aWR0aDoxLjA7IiB3aWR0aD0iNiIgeD0iMjEwMSIgeT0iNDU4Ljk0NTMiLz48dGV4dCBmaWxsPSIjMDAwMDAwIiBmb250LWZhbWlseT0ic2Fucy1zZXJpZiIgZm9udC1zaXplPSIxNCIgbGVuZ3RoQWRqdXN0PSJzcGFjaW5nIiB0ZXh0TGVuZ3RoPSIyMDMiIHg9IjIxMTMiIHk9IjQ2Ni4xODc1Ij52b3Rpbmdfc2VydmljZTogVm90aW5nU2VydmljZTwvdGV4dD48cmVjdCBmaWxsPSJub25lIiBoZWlnaHQ9IjYiIHN0eWxlPSJzdHJva2U6I0M4MjkzMDtzdHJva2Utd2lkdGg6MS4wOyIgd2lkdGg9IjYiIHg9IjIxMDEiIHk9IjQ3My45Mjk3Ii8+PHRleHQgZmlsbD0iIzAwMDAwMCIgZm9udC1mYW1pbHk9InNhbnMtc2VyaWYiIGZvbnQtc2l6ZT0iMTQiIGxlbmd0aEFkanVzdD0ic3BhY2luZyIgdGV4dExlbmd0aD0iMjMxIiB4PSIyMTEzIiB5PSI0ODEuMTcxOSI+ZmVlZGJhY2tfc2VydmljZTogRmVlZGJhY2tTZXJ2aWNlPC90ZXh0PjxsaW5lIHN0eWxlPSJzdHJva2U6IzE4MTgxODtzdHJva2Utd2lkdGg6MC41OyIgeDE9IjIwOTQiIHgyPSIyNTI2IiB5MT0iNDg2LjkyMTkiIHkyPSI0ODYuOTIxOSIvPjx0ZXh0IGZpbGw9IiMwMDAwMDAiIGZvbnQtZmFtaWx5PSJzYW5zLXNlcmlmIiBmb250LXNpemU9IjE0IiBsZW5ndGhBZGp1c3Q9InNwYWNpbmciIHRleHRMZW5ndGg9IjI4OSIgeD0iMjA5OSIgeT0iNTA0LjE1NjMiPl9faW5pdF9fKGRiOiBEQkNvbm5lY3Rpb24sIGNsaWVudHM6IGRpY3QpPC90ZXh0Pjx0ZXh0IGZpbGw9IiMwMDAwMDAiIGZvbnQtZmFtaWx5PSJzYW5zLXNlcmlmIiBmb250LXNpemU9IjE0IiBsZW5ndGhBZGp1c3Q9InNwYWNpbmciIHRleHRMZW5ndGg9IjQyMiIgeD0iMjA5OSIgeT0iNTE5LjE0MDYiPmhhbmRsZV9yZXF1ZXN0KHJlcXVlc3Q6IGRpY3QsIGNsaWVudF9zb2NrZXQ6IHNvY2tldCkgLSZndDsgZGljdDwvdGV4dD48dGV4dCBmaWxsPSIjMDAwMDAwIiBmb250LWZhbWlseT0ic2Fucy1zZXJpZiIgZm9udC1zaXplPSIxNCIgbGVuZ3RoQWRqdXN0PSJzcGFjaW5nIiB0ZXh0TGVuZ3RoPSI0MjIiIHg9IjIwOTkiIHk9IjUzNC4xMjUiPmludmFsaWRfYWN0aW9uKHJlcXVlc3Q6IGRpY3QsIGNsaWVudF9zb2NrZXQ6IHNvY2tldCkgLSZndDsgZGljdDwvdGV4dD48L2c+PCEtLWNsYXNzIFVzZXJNYW5hZ2VtZW50LS0+PGcgaWQ9ImVsZW1fVXNlck1hbmFnZW1lbnQiPjxyZWN0IGNvZGVMaW5lPSI3MyIgZmlsbD0iI0YxRjFGMSIgaGVpZ2h0PSIxMDcuOTM3NSIgaWQ9IlVzZXJNYW5hZ2VtZW50IiByeD0iMi41IiByeT0iMi41IiBzdHlsZT0ic3Ryb2tlOiMxODE4MTg7c3Ryb2tlLXdpZHRoOjAuNTsiIHdpZHRoPSIzNzEiIHg9Ijk3Ni41IiB5PSI2NDUiLz48ZWxsaXBzZSBjeD0iMTEwOC4yNSIgY3k9IjY2MSIgZmlsbD0iI0FERDFCMiIgcng9IjExIiByeT0iMTEiIHN0eWxlPSJzdHJva2U6IzE4MTgxODtzdHJva2Utd2lkdGg6MS4wOyIvPjxwYXRoIGQ9Ik0xMTA1Ljg3NSw2NjUuMjUgTDExMDUuODc1LDY2NyBMMTExMC44MTI1LDY2NyBMMTExMC44MTI1LDY2NS4yNSBMMTEwNS44NzUsNjY1LjI1IFogTTExMDYuNTYyNSw2NjUuOTM3NSBRMTEwNi41NjI1LDY2NS45Mzc1IDExMDYuNTYyNSw2NTYuNzUgTDExMDQuODEyNSw2NTYuNzUgUTExMDQuODEyNSw2NTYuNzUgMTEwNC44MTI1LDY2NS45Mzc1IEwxMTA2LjU2MjUsNjY1LjkzNzUgWiBNMTExMC4xMjUsNjY1LjkzNzUgTDExMTEuODc1LDY2NS45Mzc1IFExMTExLjg3NSw2NjUuOTM3NSAxMTExLjg3NSw2NjMuMTI1IEwxMTEwLjEyNSw2NjMuMTI1IFExMTEwLjEyNSw2NjMuMTI1IDExMTAuMTI1LDY2NS45Mzc1IFogTTExMTAuMTI1LDY1Ni43NSBRMTExMC4xMjUsNjU2Ljc1IDExMTAuMTI1LDY1OS41NjI1IEwxMTExLjg3NSw2NTkuNTYyNSBRMTExMS44NzUsNjU5LjU2MjUgMTExMS44NzUsNjU2Ljc1IEwxMTEwLjEyNSw2NTYuNzUgWiBNMTEwNS44NzUsNjU3LjQzNzUgTDExMTAuODEyNSw2NTcuNDM3NSBMMTExMC44MTI1LDY1NS42ODc1IEwxMTA1Ljg3NSw2NTUuNjg3NSBMMTEwNS44NzUsNjU3LjQzNzUgWiAiIGZpbGw9IiMwMDAwMDAiLz48dGV4dCBmaWxsPSIjMDAwMDAwIiBmb250LWZhbWlseT0ic2Fucy1zZXJpZiIgZm9udC1zaXplPSIxNCIgbGVuZ3RoQWRqdXN0PSJzcGFjaW5nIiB0ZXh0TGVuZ3RoPSI5OSIgeD0iMTEyOC43NSIgeT0iNjY2Ljc0MjIiPlVzZXJNYW5hZ2VtZW50PC90ZXh0PjxsaW5lIHN0eWxlPSJzdHJva2U6IzE4MTgxODtzdHJva2Utd2lkdGg6MC41OyIgeDE9Ijk3Ny41IiB4Mj0iMTM0Ni41IiB5MT0iNjc3IiB5Mj0iNjc3Ii8+PHJlY3QgZmlsbD0ibm9uZSIgaGVpZ2h0PSI2IiBzdHlsZT0ic3Ryb2tlOiNDODI5MzA7c3Ryb2tlLXdpZHRoOjEuMDsiIHdpZHRoPSI2IiB4PSI5ODQuNSIgeT0iNjg2Ljk5MjIiLz48dGV4dCBmaWxsPSIjMDAwMDAwIiBmb250LWZhbWlseT0ic2Fucy1zZXJpZiIgZm9udC1zaXplPSIxNCIgbGVuZ3RoQWRqdXN0PSJzcGFjaW5nIiB0ZXh0TGVuZ3RoPSIxMTIiIHg9Ijk5Ni41IiB5PSI2OTQuMjM0NCI+ZGI6IERCQ29ubmVjdGlvbjwvdGV4dD48cmVjdCBmaWxsPSJub25lIiBoZWlnaHQ9IjYiIHN0eWxlPSJzdHJva2U6I0M4MjkzMDtzdHJva2Utd2lkdGg6MS4wOyIgd2lkdGg9IjYiIHg9Ijk4NC41IiB5PSI3MDEuOTc2NiIvPjx0ZXh0IGZpbGw9IiMwMDAwMDAiIGZvbnQtZmFtaWx5PSJzYW5zLXNlcmlmIiBmb250LXNpemU9IjE0IiBsZW5ndGhBZGp1c3Q9InNwYWNpbmciIHRleHRMZW5ndGg9IjkxIiB4PSI5OTYuNSIgeT0iNzA5LjIxODgiPmNsaWVudHM6IGRpY3Q8L3RleHQ+PGxpbmUgc3R5bGU9InN0cm9rZTojMTgxODE4O3N0cm9rZS13aWR0aDowLjU7IiB4MT0iOTc3LjUiIHgyPSIxMzQ2LjUiIHkxPSI3MTQuOTY4OCIgeTI9IjcxNC45Njg4Ii8+PHRleHQgZmlsbD0iIzAwMDAwMCIgZm9udC1mYW1pbHk9InNhbnMtc2VyaWYiIGZvbnQtc2l6ZT0iMTQiIGxlbmd0aEFkanVzdD0ic3BhY2luZyIgdGV4dExlbmd0aD0iMjg5IiB4PSI5ODIuNSIgeT0iNzMyLjIwMzEiPl9faW5pdF9fKGRiOiBEQkNvbm5lY3Rpb24sIGNsaWVudHM6IGRpY3QpPC90ZXh0Pjx0ZXh0IGZpbGw9IiMwMDAwMDAiIGZvbnQtZmFtaWx5PSJzYW5zLXNlcmlmIiBmb250LXNpemU9IjE0IiBsZW5ndGhBZGp1c3Q9InNwYWNpbmciIHRleHRMZW5ndGg9IjM1OSIgeD0iOTgyLjUiIHk9Ijc0Ny4xODc1Ij5sb2dpbihyZXF1ZXN0OiBkaWN0LCBjbGllbnRfc29ja2V0OiBzb2NrZXQpIC0mZ3Q7IGRpY3Q8L3RleHQ+PC9nPjwhLS1jbGFzcyBNZW51TWFuYWdlbWVudC0tPjxnIGlkPSJlbGVtX01lbnVNYW5hZ2VtZW50Ij48cmVjdCBjb2RlTGluZT0iODAiIGZpbGw9IiNGMUYxRjEiIGhlaWdodD0iMTk3Ljg0MzgiIGlkPSJNZW51TWFuYWdlbWVudCIgcng9IjIuNSIgcnk9IjIuNSIgc3R5bGU9InN0cm9rZTojMTgxODE4O3N0cm9rZS13aWR0aDowLjU7IiB3aWR0aD0iNjYwIiB4PSIxMzgzIiB5PSI2MDAiLz48ZWxsaXBzZSBjeD0iMTY1OS4yNSIgY3k9IjYxNiIgZmlsbD0iI0FERDFCMiIgcng9IjExIiByeT0iMTEiIHN0eWxlPSJzdHJva2U6IzE4MTgxODtzdHJva2Utd2lkdGg6MS4wOyIvPjxwYXRoIGQ9Ik0xNjU2Ljg3NSw2MjAuMjUgTDE2NTYuODc1LDYyMiBMMTY2MS44MTI1LDYyMiBMMTY2MS44MTI1LDYyMC4yNSBMMTY1Ni44NzUsNjIwLjI1IFogTTE2NTcuNTYyNSw2MjAuOTM3NSBRMTY1Ny41NjI1LDYyMC45Mzc1IDE2NTcuNTYyNSw2MTEuNzUgTDE2NTUuODEyNSw2MTEuNzUgUTE2NTUuODEyNSw2MTEuNzUgMTY1NS44MTI1LDYyMC45Mzc1IEwxNjU3LjU2MjUsNjIwLjkzNzUgWiBNMTY2MS4xMjUsNjIwLjkzNzUgTDE2NjIuODc1LDYyMC45Mzc1IFExNjYyLjg3NSw2MjAuOTM3NSAxNjYyLjg3NSw2MTguMTI1IEwxNjYxLjEyNSw2MTguMTI1IFExNjYxLjEyNSw2MTguMTI1IDE2NjEuMTI1LDYyMC45Mzc1IFogTTE2NjEuMTI1LDYxMS43NSBRMTY2MS4xMjUsNjExLjc1IDE2NjEuMTI1LDYxNC41NjI1IEwxNjYyLjg3NSw2MTQuNTYyNSBRMTY2Mi44NzUsNjE0LjU2MjUgMTY2Mi44NzUsNjExLjc1IEwxNjYxLjEyNSw2MTEuNzUgWiBNMTY1Ni44NzUsNjEyLjQzNzUgTDE2NjEuODEyNSw2MTIuNDM3NSBMMTY2MS44MTI1LDYxMC42ODc1IEwxNjU2Ljg3NSw2MTAuNjg3NSBMMTY1Ni44NzUsNjEyLjQzNzUgWiAiIGZpbGw9IiMwMDAwMDAiLz48dGV4dCBmaWxsPSIjMDAwMDAwIiBmb250LWZhbWlseT0ic2Fucy1zZXJpZiIgZm9udC1zaXplPSIxNCIgbGVuZ3RoQWRqdXN0PSJzcGFjaW5nIiB0ZXh0TGVuZ3RoPSI5OSIgeD0iMTY3OS43NSIgeT0iNjIxLjc0MjIiPk1lbnVNYW5hZ2VtZW50PC90ZXh0PjxsaW5lIHN0eWxlPSJzdHJva2U6IzE4MTgxODtzdHJva2Utd2lkdGg6MC41OyIgeDE9IjEzODQiIHgyPSIyMDQyIiB5MT0iNjMyIiB5Mj0iNjMyIi8+PHJlY3QgZmlsbD0ibm9uZSIgaGVpZ2h0PSI2IiBzdHlsZT0ic3Ryb2tlOiNDODI5MzA7c3Ryb2tlLXdpZHRoOjEuMDsiIHdpZHRoPSI2IiB4PSIxMzkxIiB5PSI2NDEuOTkyMiIvPjx0ZXh0IGZpbGw9IiMwMDAwMDAiIGZvbnQtZmFtaWx5PSJzYW5zLXNlcmlmIiBmb250LXNpemU9IjE0IiBsZW5ndGhBZGp1c3Q9InNwYWNpbmciIHRleHRMZW5ndGg9IjExMiIgeD0iMTQwMyIgeT0iNjQ5LjIzNDQiPmRiOiBEQkNvbm5lY3Rpb248L3RleHQ+PGxpbmUgc3R5bGU9InN0cm9rZTojMTgxODE4O3N0cm9rZS13aWR0aDowLjU7IiB4MT0iMTM4NCIgeDI9IjIwNDIiIHkxPSI2NTQuOTg0NCIgeTI9IjY1NC45ODQ0Ii8+PHRleHQgZmlsbD0iIzAwMDAwMCIgZm9udC1mYW1pbHk9InNhbnMtc2VyaWYiIGZvbnQtc2l6ZT0iMTQiIGxlbmd0aEFkanVzdD0ic3BhY2luZyIgdGV4dExlbmd0aD0iMTg0IiB4PSIxMzg5IiB5PSI2NzIuMjE4OCI+X19pbml0X18oZGI6IERCQ29ubmVjdGlvbik8L3RleHQ+PHRleHQgZmlsbD0iIzAwMDAwMCIgZm9udC1mYW1pbHk9InNhbnMtc2VyaWYiIGZvbnQtc2l6ZT0iMTQiIGxlbmd0aEFkanVzdD0ic3BhY2luZyIgdGV4dExlbmd0aD0iMzg5IiB4PSIxMzg5IiB5PSI2ODcuMjAzMSI+dmlld19tZW51KHJlcXVlc3Q6IGRpY3QsIGNsaWVudF9zb2NrZXQ6IHNvY2tldCkgLSZndDsgZGljdDwvdGV4dD48dGV4dCBmaWxsPSIjMDAwMDAwIiBmb250LWZhbWlseT0ic2Fucy1zZXJpZiIgZm9udC1zaXplPSIxNCIgbGVuZ3RoQWRqdXN0PSJzcGFjaW5nIiB0ZXh0TGVuZ3RoPSI0MTciIHg9IjEzODkiIHk9IjcwMi4xODc1Ij5hZGRfbWVudV9pdGVtKHJlcXVlc3Q6IGRpY3QsIGNsaWVudF9zb2NrZXQ6IHNvY2tldCkgLSZndDsgZGljdDwvdGV4dD48dGV4dCBmaWxsPSIjMDAwMDAwIiBmb250LWZhbWlseT0ic2Fucy1zZXJpZiIgZm9udC1zaXplPSIxNCIgbGVuZ3RoQWRqdXN0PSJzcGFjaW5nIiB0ZXh0TGVuZ3RoPSI0MzgiIHg9IjEzODkiIHk9IjcxNy4xNzE5Ij51cGRhdGVfbWVudV9pdGVtKHJlcXVlc3Q6IGRpY3QsIGNsaWVudF9zb2NrZXQ6IHNvY2tldCkgLSZndDsgZGljdDwvdGV4dD48dGV4dCBmaWxsPSIjMDAwMDAwIiBmb250LWZhbWlseT0ic2Fucy1zZXJpZiIgZm9udC1zaXplPSIxNCIgbGVuZ3RoQWRqdXN0PSJzcGFjaW5nIiB0ZXh0TGVuZ3RoPSI0MzgiIHg9IjEzODkiIHk9IjczMi4xNTYzIj5kZWxldGVfbWVudV9pdGVtKHJlcXVlc3Q6IGRpY3QsIGNsaWVudF9zb2NrZXQ6IHNvY2tldCkgLSZndDsgZGljdDwvdGV4dD48dGV4dCBmaWxsPSIjMDAwMDAwIiBmb250LWZhbWlseT0ic2Fucy1zZXJpZiIgZm9udC1zaXplPSIxNCIgbGVuZ3RoQWRqdXN0PSJzcGFjaW5nIiB0ZXh0TGVuZ3RoPSI0NTkiIHg9IjEzODkiIHk9Ijc0Ny4xNDA2Ij5nZXRfcmVjb21tZW5kYXRpb25zKHJlcXVlc3Q6IGRpY3QsIGNsaWVudF9zb2NrZXQ6IHNvY2tldCkgLSZndDsgZGljdDwvdGV4dD48dGV4dCBmaWxsPSIjMDAwMDAwIiBmb250LWZhbWlseT0ic2Fucy1zZXJpZiIgZm9udC1zaXplPSIxNCIgbGVuZ3RoQWRqdXN0PSJzcGFjaW5nIiB0ZXh0TGVuZ3RoPSI2NDgiIHg9IjEzODkiIHk9Ijc2Mi4xMjUiPl9leGVjdXRlX3VwZGF0ZShjdXJzb3I6IGRiLmN1cnNvciwgaXRlbV9pZDogaW50LCBuYW1lOiBzdHIsIHByaWNlOiBmbG9hdCwgYXZhaWxhYmlsaXR5OiBzdHIpPC90ZXh0Pjx0ZXh0IGZpbGw9IiMwMDAwMDAiIGZvbnQtZmFtaWx5PSJzYW5zLXNlcmlmIiBmb250LXNpemU9IjE0IiBsZW5ndGhBZGp1c3Q9InNwYWNpbmciIHRleHRMZW5ndGg9IjM0NyIgeD0iMTM4OSIgeT0iNzc3LjEwOTQiPl9zZW5kX25vdGlmaWNhdGlvbl90b19hbGxfZW1wbG95ZWVzKG1lc3NhZ2U6IHN0cik8L3RleHQ+PHRleHQgZmlsbD0iIzAwMDAwMCIgZm9udC1mYW1pbHk9InNhbnMtc2VyaWYiIGZvbnQtc2l6ZT0iMTQiIGxlbmd0aEFkanVzdD0ic3BhY2luZyIgdGV4dExlbmd0aD0iMjYyIiB4PSIxMzg5IiB5PSI3OTIuMDkzOCI+X2Jyb2FkY2FzdF9ub3RpZmljYXRpb24obWVzc2FnZTogc3RyKTwvdGV4dD48L2c+PCEtLWNsYXNzIE5vdGlmaWNhdGlvblNlcnZpY2UtLT48ZyBpZD0iZWxlbV9Ob3RpZmljYXRpb25TZXJ2aWNlIj48cmVjdCBjb2RlTGluZT0iOTMiIGZpbGw9IiNGMUYxRjEiIGhlaWdodD0iMTM3LjkwNjMiIGlkPSJOb3RpZmljYXRpb25TZXJ2aWNlIiByeD0iMi41IiByeT0iMi41IiBzdHlsZT0ic3Ryb2tlOiMxODE4MTg7c3Ryb2tlLXdpZHRoOjAuNTsiIHdpZHRoPSI0NjMiIHg9IjIwNzguNSIgeT0iNjMwIi8+PGVsbGlwc2UgY3g9IjIyMzkuMjUiIGN5PSI2NDYiIGZpbGw9IiNBREQxQjIiIHJ4PSIxMSIgcnk9IjExIiBzdHlsZT0ic3Ryb2tlOiMxODE4MTg7c3Ryb2tlLXdpZHRoOjEuMDsiLz48cGF0aCBkPSJNMjIzNi44NzUsNjUwLjI1IEwyMjM2Ljg3NSw2NTIgTDIyNDEuODEyNSw2NTIgTDIyNDEuODEyNSw2NTAuMjUgTDIyMzYuODc1LDY1MC4yNSBaIE0yMjM3LjU2MjUsNjUwLjkzNzUgUTIyMzcuNTYyNSw2NTAuOTM3NSAyMjM3LjU2MjUsNjQxLjc1IEwyMjM1LjgxMjUsNjQxLjc1IFEyMjM1LjgxMjUsNjQxLjc1IDIyMzUuODEyNSw2NTAuOTM3NSBMMjIzNy41NjI1LDY1MC45Mzc1IFogTTIyNDEuMTI1LDY1MC45Mzc1IEwyMjQyLjg3NSw2NTAuOTM3NSBRMjI0Mi44NzUsNjUwLjkzNzUgMjI0Mi44NzUsNjQ4LjEyNSBMMjI0MS4xMjUsNjQ4LjEyNSBRMjI0MS4xMjUsNjQ4LjEyNSAyMjQxLjEyNSw2NTAuOTM3NSBaIE0yMjQxLjEyNSw2NDEuNzUgUTIyNDEuMTI1LDY0MS43NSAyMjQxLjEyNSw2NDQuNTYyNSBMMjI0Mi44NzUsNjQ0LjU2MjUgUTIyNDIuODc1LDY0NC41NjI1IDIyNDIuODc1LDY0MS43NSBMMjI0MS4xMjUsNjQxLjc1IFogTTIyMzYuODc1LDY0Mi40Mzc1IEwyMjQxLjgxMjUsNjQyLjQzNzUgTDIyNDEuODEyNSw2NDAuNjg3NSBMMjIzNi44NzUsNjQwLjY4NzUgTDIyMzYuODc1LDY0Mi40Mzc1IFogIiBmaWxsPSIjMDAwMDAwIi8+PHRleHQgZmlsbD0iIzAwMDAwMCIgZm9udC1mYW1pbHk9InNhbnMtc2VyaWYiIGZvbnQtc2l6ZT0iMTQiIGxlbmd0aEFkanVzdD0ic3BhY2luZyIgdGV4dExlbmd0aD0iMTMzIiB4PSIyMjU5Ljc1IiB5PSI2NTEuNzQyMiI+Tm90aWZpY2F0aW9uU2VydmljZTwvdGV4dD48bGluZSBzdHlsZT0ic3Ryb2tlOiMxODE4MTg7c3Ryb2tlLXdpZHRoOjAuNTsiIHgxPSIyMDc5LjUiIHgyPSIyNTQwLjUiIHkxPSI2NjIiIHkyPSI2NjIiLz48cmVjdCBmaWxsPSJub25lIiBoZWlnaHQ9IjYiIHN0eWxlPSJzdHJva2U6I0M4MjkzMDtzdHJva2Utd2lkdGg6MS4wOyIgd2lkdGg9IjYiIHg9IjIwODYuNSIgeT0iNjcxLjk5MjIiLz48dGV4dCBmaWxsPSIjMDAwMDAwIiBmb250LWZhbWlseT0ic2Fucy1zZXJpZiIgZm9udC1zaXplPSIxNCIgbGVuZ3RoQWRqdXN0PSJzcGFjaW5nIiB0ZXh0TGVuZ3RoPSIxMTIiIHg9IjIwOTguNSIgeT0iNjc5LjIzNDQiPmRiOiBEQkNvbm5lY3Rpb248L3RleHQ+PHJlY3QgZmlsbD0ibm9uZSIgaGVpZ2h0PSI2IiBzdHlsZT0ic3Ryb2tlOiNDODI5MzA7c3Ryb2tlLXdpZHRoOjEuMDsiIHdpZHRoPSI2IiB4PSIyMDg2LjUiIHk9IjY4Ni45NzY2Ii8+PHRleHQgZmlsbD0iIzAwMDAwMCIgZm9udC1mYW1pbHk9InNhbnMtc2VyaWYiIGZvbnQtc2l6ZT0iMTQiIGxlbmd0aEFkanVzdD0ic3BhY2luZyIgdGV4dExlbmd0aD0iOTEiIHg9IjIwOTguNSIgeT0iNjk0LjIxODgiPmNsaWVudHM6IGRpY3Q8L3RleHQ+PGxpbmUgc3R5bGU9InN0cm9rZTojMTgxODE4O3N0cm9rZS13aWR0aDowLjU7IiB4MT0iMjA3OS41IiB4Mj0iMjU0MC41IiB5MT0iNjk5Ljk2ODgiIHkyPSI2OTkuOTY4OCIvPjx0ZXh0IGZpbGw9IiMwMDAwMDAiIGZvbnQtZmFtaWx5PSJzYW5zLXNlcmlmIiBmb250LXNpemU9IjE0IiBsZW5ndGhBZGp1c3Q9InNwYWNpbmciIHRleHRMZW5ndGg9IjI4OSIgeD0iMjA4NC41IiB5PSI3MTcuMjAzMSI+X19pbml0X18oZGI6IERCQ29ubmVjdGlvbiwgY2xpZW50czogZGljdCk8L3RleHQ+PHRleHQgZmlsbD0iIzAwMDAwMCIgZm9udC1mYW1pbHk9InNhbnMtc2VyaWYiIGZvbnQtc2l6ZT0iMTQiIGxlbmd0aEFkanVzdD0ic3BhY2luZyIgdGV4dExlbmd0aD0iNDQzIiB4PSIyMDg0LjUiIHk9IjczMi4xODc1Ij5zZW5kX25vdGlmaWNhdGlvbihyZXF1ZXN0OiBkaWN0LCBjbGllbnRfc29ja2V0OiBzb2NrZXQpIC0mZ3Q7IGRpY3Q8L3RleHQ+PHRleHQgZmlsbD0iIzAwMDAwMCIgZm9udC1mYW1pbHk9InNhbnMtc2VyaWYiIGZvbnQtc2l6ZT0iMTQiIGxlbmd0aEFkanVzdD0ic3BhY2luZyIgdGV4dExlbmd0aD0iNDUxIiB4PSIyMDg0LjUiIHk9Ijc0Ny4xNzE5Ij52aWV3X25vdGlmaWNhdGlvbnMocmVxdWVzdDogZGljdCwgY2xpZW50X3NvY2tldDogc29ja2V0KSAtJmd0OyBkaWN0PC90ZXh0Pjx0ZXh0IGZpbGw9IiMwMDAwMDAiIGZvbnQtZmFtaWx5PSJzYW5zLXNlcmlmIiBmb250LXNpemU9IjE0IiBsZW5ndGhBZGp1c3Q9InNwYWNpbmciIHRleHRMZW5ndGg9IjI2MiIgeD0iMjA4NC41IiB5PSI3NjIuMTU2MyI+X2Jyb2FkY2FzdF9ub3RpZmljYXRpb24obWVzc2FnZTogc3RyKTwvdGV4dD48L2c+PCEtLWNsYXNzIFZvdGluZ1NlcnZpY2UtLT48ZyBpZD0iZWxlbV9Wb3RpbmdTZXJ2aWNlIj48cmVjdCBjb2RlTGluZT0iMTAyIiBmaWxsPSIjRjFGMUYxIiBoZWlnaHQ9IjEwNy45Mzc1IiBpZD0iVm90aW5nU2VydmljZSIgcng9IjIuNSIgcnk9IjIuNSIgc3R5bGU9InN0cm9rZTojMTgxODE4O3N0cm9rZS13aWR0aDowLjU7IiB3aWR0aD0iNDY0IiB4PSIyNTc3IiB5PSI2NDUiLz48ZWxsaXBzZSBjeD0iMjc1OS4yNSIgY3k9IjY2MSIgZmlsbD0iI0FERDFCMiIgcng9IjExIiByeT0iMTEiIHN0eWxlPSJzdHJva2U6IzE4MTgxODtzdHJva2Utd2lkdGg6MS4wOyIvPjxwYXRoIGQ9Ik0yNzU2Ljg3NSw2NjUuMjUgTDI3NTYuODc1LDY2NyBMMjc2MS44MTI1LDY2NyBMMjc2MS44MTI1LDY2NS4yNSBMMjc1Ni44NzUsNjY1LjI1IFogTTI3NTcuNTYyNSw2NjUuOTM3NSBRMjc1Ny41NjI1LDY2NS45Mzc1IDI3NTcuNTYyNSw2NTYuNzUgTDI3NTUuODEyNSw2NTYuNzUgUTI3NTUuODEyNSw2NTYuNzUgMjc1NS44MTI1LDY2NS45Mzc1IEwyNzU3LjU2MjUsNjY1LjkzNzUgWiBNMjc2MS4xMjUsNjY1LjkzNzUgTDI3NjIuODc1LDY2NS45Mzc1IFEyNzYyLjg3NSw2NjUuOTM3NSAyNzYyLjg3NSw2NjMuMTI1IEwyNzYxLjEyNSw2NjMuMTI1IFEyNzYxLjEyNSw2NjMuMTI1IDI3NjEuMTI1LDY2NS45Mzc1IFogTTI3NjEuMTI1LDY1Ni43NSBRMjc2MS4xMjUsNjU2Ljc1IDI3NjEuMTI1LDY1OS41NjI1IEwyNzYyLjg3NSw2NTkuNTYyNSBRMjc2Mi44NzUsNjU5LjU2MjUgMjc2Mi44NzUsNjU2Ljc1IEwyNzYxLjEyNSw2NTYuNzUgWiBNMjc1Ni44NzUsNjU3LjQzNzUgTDI3NjEuODEyNSw2NTcuNDM3NSBMMjc2MS44MTI1LDY1NS42ODc1IEwyNzU2Ljg3NSw2NTUuNjg3NSBMMjc1Ni44NzUsNjU3LjQzNzUgWiAiIGZpbGw9IiMwMDAwMDAiLz48dGV4dCBmaWxsPSIjMDAwMDAwIiBmb250LWZhbWlseT0ic2Fucy1zZXJpZiIgZm9udC1zaXplPSIxNCIgbGVuZ3RoQWRqdXN0PSJzcGFjaW5nIiB0ZXh0TGVuZ3RoPSI5MSIgeD0iMjc3OS43NSIgeT0iNjY2Ljc0MjIiPlZvdGluZ1NlcnZpY2U8L3RleHQ+PGxpbmUgc3R5bGU9InN0cm9rZTojMTgxODE4O3N0cm9rZS13aWR0aDowLjU7IiB4MT0iMjU3OCIgeDI9IjMwNDAiIHkxPSI2NzciIHkyPSI2NzciLz48cmVjdCBmaWxsPSJub25lIiBoZWlnaHQ9IjYiIHN0eWxlPSJzdHJva2U6I0M4MjkzMDtzdHJva2Utd2lkdGg6MS4wOyIgd2lkdGg9IjYiIHg9IjI1ODUiIHk9IjY4Ni45OTIyIi8+PHRleHQgZmlsbD0iIzAwMDAwMCIgZm9udC1mYW1pbHk9InNhbnMtc2VyaWYiIGZvbnQtc2l6ZT0iMTQiIGxlbmd0aEFkanVzdD0ic3BhY2luZyIgdGV4dExlbmd0aD0iMTEyIiB4PSIyNTk3IiB5PSI2OTQuMjM0NCI+ZGI6IERCQ29ubmVjdGlvbjwvdGV4dD48bGluZSBzdHlsZT0ic3Ryb2tlOiMxODE4MTg7c3Ryb2tlLXdpZHRoOjAuNTsiIHgxPSIyNTc4IiB4Mj0iMzA0MCIgeTE9IjY5OS45ODQ0IiB5Mj0iNjk5Ljk4NDQiLz48dGV4dCBmaWxsPSIjMDAwMDAwIiBmb250LWZhbWlseT0ic2Fucy1zZXJpZiIgZm9udC1zaXplPSIxNCIgbGVuZ3RoQWRqdXN0PSJzcGFjaW5nIiB0ZXh0TGVuZ3RoPSIxODQiIHg9IjI1ODMiIHk9IjcxNy4yMTg4Ij5fX2luaXRfXyhkYjogREJDb25uZWN0aW9uKTwvdGV4dD48dGV4dCBmaWxsPSIjMDAwMDAwIiBmb250LWZhbWlseT0ic2Fucy1zZXJpZiIgZm9udC1zaXplPSIxNCIgbGVuZ3RoQWRqdXN0PSJzcGFjaW5nIiB0ZXh0TGVuZ3RoPSI0NTIiIHg9IjI1ODMiIHk9IjczMi4yMDMxIj52b3RlX2Zvcl9tZW51X2l0ZW0ocmVxdWVzdDogZGljdCwgY2xpZW50X3NvY2tldDogc29ja2V0KSAtJmd0OyBkaWN0PC90ZXh0Pjx0ZXh0IGZpbGw9IiMwMDAwMDAiIGZvbnQtZmFtaWx5PSJzYW5zLXNlcmlmIiBmb250LXNpemU9IjE0IiBsZW5ndGhBZGp1c3Q9InNwYWNpbmciIHRleHRMZW5ndGg9IjQzNyIgeD0iMjU4MyIgeT0iNzQ3LjE4NzUiPnZpZXdfdm90ZV9jb3VudHMocmVxdWVzdDogZGljdCwgY2xpZW50X3NvY2tldDogc29ja2V0KSAtJmd0OyBkaWN0PC90ZXh0PjwvZz48IS0tY2xhc3MgRmVlZGJhY2tTZXJ2aWNlLS0+PGcgaWQ9ImVsZW1fRmVlZGJhY2tTZXJ2aWNlIj48cmVjdCBjb2RlTGluZT0iMTA5IiBmaWxsPSIjRjFGMUYxIiBoZWlnaHQ9IjEwNy45Mzc1IiBpZD0iRmVlZGJhY2tTZXJ2aWNlIiByeD0iMi41IiByeT0iMi41IiBzdHlsZT0ic3Ryb2tlOiMxODE4MTg7c3Ryb2tlLXdpZHRoOjAuNTsiIHdpZHRoPSI0NDIiIHg9IjMwNzYiIHk9IjY0NSIvPjxlbGxpcHNlIGN4PSIzMjQwLjI1IiBjeT0iNjYxIiBmaWxsPSIjQUREMUIyIiByeD0iMTEiIHJ5PSIxMSIgc3R5bGU9InN0cm9rZTojMTgxODE4O3N0cm9rZS13aWR0aDoxLjA7Ii8+PHBhdGggZD0iTTMyMzcuODc1LDY2NS4yNSBMMzIzNy44NzUsNjY3IEwzMjQyLjgxMjUsNjY3IEwzMjQyLjgxMjUsNjY1LjI1IEwzMjM3Ljg3NSw2NjUuMjUgWiBNMzIzOC41NjI1LDY2NS45Mzc1IFEzMjM4LjU2MjUsNjY1LjkzNzUgMzIzOC41NjI1LDY1Ni43NSBMMzIzNi44MTI1LDY1Ni43NSBRMzIzNi44MTI1LDY1Ni43NSAzMjM2LjgxMjUsNjY1LjkzNzUgTDMyMzguNTYyNSw2NjUuOTM3NSBaIE0zMjQyLjEyNSw2NjUuOTM3NSBMMzI0My44NzUsNjY1LjkzNzUgUTMyNDMuODc1LDY2NS45Mzc1IDMyNDMuODc1LDY2My4xMjUgTDMyNDIuMTI1LDY2My4xMjUgUTMyNDIuMTI1LDY2My4xMjUgMzI0Mi4xMjUsNjY1LjkzNzUgWiBNMzI0Mi4xMjUsNjU2Ljc1IFEzMjQyLjEyNSw2NTYuNzUgMzI0Mi4xMjUsNjU5LjU2MjUgTDMyNDMuODc1LDY1OS41NjI1IFEzMjQzLjg3NSw2NTkuNTYyNSAzMjQzLjg3NSw2NTYuNzUgTDMyNDIuMTI1LDY1Ni43NSBaIE0zMjM3Ljg3NSw2NTcuNDM3NSBMMzI0Mi44MTI1LDY1Ny40Mzc1IEwzMjQyLjgxMjUsNjU1LjY4NzUgTDMyMzcuODc1LDY1NS42ODc1IEwzMjM3Ljg3NSw2NTcuNDM3NSBaICIgZmlsbD0iIzAwMDAwMCIvPjx0ZXh0IGZpbGw9IiMwMDAwMDAiIGZvbnQtZmFtaWx5PSJzYW5zLXNlcmlmIiBmb250LXNpemU9IjE0IiBsZW5ndGhBZGp1c3Q9InNwYWNpbmciIHRleHRMZW5ndGg9IjEwNSIgeD0iMzI2MC43NSIgeT0iNjY2Ljc0MjIiPkZlZWRiYWNrU2VydmljZTwvdGV4dD48bGluZSBzdHlsZT0ic3Ryb2tlOiMxODE4MTg7c3Ryb2tlLXdpZHRoOjAuNTsiIHgxPSIzMDc3IiB4Mj0iMzUxNyIgeTE9IjY3NyIgeTI9IjY3NyIvPjxyZWN0IGZpbGw9Im5vbmUiIGhlaWdodD0iNiIgc3R5bGU9InN0cm9rZTojQzgyOTMwO3N0cm9rZS13aWR0aDoxLjA7IiB3aWR0aD0iNiIgeD0iMzA4NCIgeT0iNjg2Ljk5MjIiLz48dGV4dCBmaWxsPSIjMDAwMDAwIiBmb250LWZhbWlseT0ic2Fucy1zZXJpZiIgZm9udC1zaXplPSIxNCIgbGVuZ3RoQWRqdXN0PSJzcGFjaW5nIiB0ZXh0TGVuZ3RoPSIxMTIiIHg9IjMwOTYiIHk9IjY5NC4yMzQ0Ij5kYjogREJDb25uZWN0aW9uPC90ZXh0PjxsaW5lIHN0eWxlPSJzdHJva2U6IzE4MTgxODtzdHJva2Utd2lkdGg6MC41OyIgeDE9IjMwNzciIHgyPSIzNTE3IiB5MT0iNjk5Ljk4NDQiIHkyPSI2OTkuOTg0NCIvPjx0ZXh0IGZpbGw9IiMwMDAwMDAiIGZvbnQtZmFtaWx5PSJzYW5zLXNlcmlmIiBmb250LXNpemU9IjE0IiBsZW5ndGhBZGp1c3Q9InNwYWNpbmciIHRleHRMZW5ndGg9IjE4NCIgeD0iMzA4MiIgeT0iNzE3LjIxODgiPl9faW5pdF9fKGRiOiBEQkNvbm5lY3Rpb24pPC90ZXh0Pjx0ZXh0IGZpbGw9IiMwMDAwMDAiIGZvbnQtZmFtaWx5PSJzYW5zLXNlcmlmIiBmb250LXNpemU9IjE0IiBsZW5ndGhBZGp1c3Q9InNwYWNpbmciIHRleHRMZW5ndGg9IjQzMCIgeD0iMzA4MiIgeT0iNzMyLjIwMzEiPnN1Ym1pdF9mZWVkYmFjayhyZXF1ZXN0OiBkaWN0LCBjbGllbnRfc29ja2V0OiBzb2NrZXQpIC0mZ3Q7IGRpY3Q8L3RleHQ+PHRleHQgZmlsbD0iIzAwMDAwMCIgZm9udC1mYW1pbHk9InNhbnMtc2VyaWYiIGZvbnQtc2l6ZT0iMTQiIGxlbmd0aEFkanVzdD0ic3BhY2luZyIgdGV4dExlbmd0aD0iNDA5IiB4PSIzMDgyIiB5PSI3NDcuMTg3NSI+dmlld19yZXBvcnRzKHJlcXVlc3Q6IGRpY3QsIGNsaWVudF9zb2NrZXQ6IHNvY2tldCkgLSZndDsgZGljdDwvdGV4dD48L2c+PCEtLWNsYXNzIEN1c3RvbUpTT05FbmNvZGVyLS0+PGcgaWQ9ImVsZW1fQ3VzdG9tSlNPTkVuY29kZXIiPjxyZWN0IGNvZGVMaW5lPSIxMTYiIGZpbGw9IiNGMUYxRjEiIGhlaWdodD0iNjIuOTg0NCIgaWQ9IkN1c3RvbUpTT05FbmNvZGVyIiByeD0iMi41IiByeT0iMi41IiBzdHlsZT0ic3Ryb2tlOiMxODE4MTg7c3Ryb2tlLXdpZHRoOjAuNTsiIHdpZHRoPSIxOTYiIHg9IjE0MjQiIHk9IjE0NCIvPjxlbGxpcHNlIGN4PSIxNDU4LjM1IiBjeT0iMTYwIiBmaWxsPSIjQUREMUIyIiByeD0iMTEiIHJ5PSIxMSIgc3R5bGU9InN0cm9rZTojMTgxODE4O3N0cm9rZS13aWR0aDoxLjA7Ii8+PHBhdGggZD0iTTE0NTUuOTc1LDE2NC4yNSBMMTQ1NS45NzUsMTY2IEwxNDYwLjkxMjUsMTY2IEwxNDYwLjkxMjUsMTY0LjI1IEwxNDU1Ljk3NSwxNjQuMjUgWiBNMTQ1Ni42NjI1LDE2NC45Mzc1IFExNDU2LjY2MjUsMTY0LjkzNzUgMTQ1Ni42NjI1LDE1NS43NSBMMTQ1NC45MTI1LDE1NS43NSBRMTQ1NC45MTI1LDE1NS43NSAxNDU0LjkxMjUsMTY0LjkzNzUgTDE0NTYuNjYyNSwxNjQuOTM3NSBaIE0xNDYwLjIyNSwxNjQuOTM3NSBMMTQ2MS45NzUsMTY0LjkzNzUgUTE0NjEuOTc1LDE2NC45Mzc1IDE0NjEuOTc1LDE2Mi4xMjUgTDE0NjAuMjI1LDE2Mi4xMjUgUTE0NjAuMjI1LDE2Mi4xMjUgMTQ2MC4yMjUsMTY0LjkzNzUgWiBNMTQ2MC4yMjUsMTU1Ljc1IFExNDYwLjIyNSwxNTUuNzUgMTQ2MC4yMjUsMTU4LjU2MjUgTDE0NjEuOTc1LDE1OC41NjI1IFExNDYxLjk3NSwxNTguNTYyNSAxNDYxLjk3NSwxNTUuNzUgTDE0NjAuMjI1LDE1NS43NSBaIE0xNDU1Ljk3NSwxNTYuNDM3NSBMMTQ2MC45MTI1LDE1Ni40Mzc1IEwxNDYwLjkxMjUsMTU0LjY4NzUgTDE0NTUuOTc1LDE1NC42ODc1IEwxNDU1Ljk3NSwxNTYuNDM3NSBaICIgZmlsbD0iIzAwMDAwMCIvPjx0ZXh0IGZpbGw9IiMwMDAwMDAiIGZvbnQtZmFtaWx5PSJzYW5zLXNlcmlmIiBmb250LXNpemU9IjE0IiBsZW5ndGhBZGp1c3Q9InNwYWNpbmciIHRleHRMZW5ndGg9IjEyMSIgeD0iMTQ3Ni42NSIgeT0iMTY1Ljc0MjIiPkN1c3RvbUpTT05FbmNvZGVyPC90ZXh0PjxsaW5lIHN0eWxlPSJzdHJva2U6IzE4MTgxODtzdHJva2Utd2lkdGg6MC41OyIgeDE9IjE0MjUiIHgyPSIxNjE5IiB5MT0iMTc2IiB5Mj0iMTc2Ii8+PGxpbmUgc3R5bGU9InN0cm9rZTojMTgxODE4O3N0cm9rZS13aWR0aDowLjU7IiB4MT0iMTQyNSIgeDI9IjE2MTkiIHkxPSIxODQiIHkyPSIxODQiLz48ZWxsaXBzZSBjeD0iMTQzNSIgY3k9IjE5Ni45OTIyIiBmaWxsPSIjODRCRTg0IiByeD0iMyIgcnk9IjMiIHN0eWxlPSJzdHJva2U6IzAzODA0ODtzdHJva2Utd2lkdGg6MS4wOyIvPjx0ZXh0IGZpbGw9IiMwMDAwMDAiIGZvbnQtZmFtaWx5PSJzYW5zLXNlcmlmIiBmb250LXNpemU9IjE0IiBsZW5ndGhBZGp1c3Q9InNwYWNpbmciIHRleHRMZW5ndGg9IjE3MCIgeD0iMTQ0NCIgeT0iMjAxLjIzNDQiPmRlZmF1bHQob2JqOiBhbnkpIC0mZ3Q7IHN0cjwvdGV4dD48L2c+PCEtLWNsYXNzIERCQ29ubmVjdGlvbi0tPjxnIGlkPSJlbGVtX0RCQ29ubmVjdGlvbiI+PHJlY3QgY29kZUxpbmU9IjEyMCIgZmlsbD0iI0YxRjFGMSIgaGVpZ2h0PSI2Mi45ODQ0IiBpZD0iREJDb25uZWN0aW9uIiByeD0iMi41IiByeT0iMi41IiBzdHlsZT0ic3Ryb2tlOiMxODE4MTg7c3Ryb2tlLXdpZHRoOjAuNTsiIHdpZHRoPSIyODAiIHg9IjIxNzAiIHk9Ijg1OCIvPjxlbGxpcHNlIGN4PSIyMjYzLjc1IiBjeT0iODc0IiBmaWxsPSIjQUREMUIyIiByeD0iMTEiIHJ5PSIxMSIgc3R5bGU9InN0cm9rZTojMTgxODE4O3N0cm9rZS13aWR0aDoxLjA7Ii8+PHBhdGggZD0iTTIyNjEuMzc1LDg3OC4yNSBMMjI2MS4zNzUsODgwIEwyMjY2LjMxMjUsODgwIEwyMjY2LjMxMjUsODc4LjI1IEwyMjYxLjM3NSw4NzguMjUgWiBNMjI2Mi4wNjI1LDg3OC45Mzc1IFEyMjYyLjA2MjUsODc4LjkzNzUgMjI2Mi4wNjI1LDg2OS43NSBMMjI2MC4zMTI1LDg2OS43NSBRMjI2MC4zMTI1LDg2OS43NSAyMjYwLjMxMjUsODc4LjkzNzUgTDIyNjIuMDYyNSw4NzguOTM3NSBaIE0yMjY1LjYyNSw4NzguOTM3NSBMMjI2Ny4zNzUsODc4LjkzNzUgUTIyNjcuMzc1LDg3OC45Mzc1IDIyNjcuMzc1LDg3Ni4xMjUgTDIyNjUuNjI1LDg3Ni4xMjUgUTIyNjUuNjI1LDg3Ni4xMjUgMjI2NS42MjUsODc4LjkzNzUgWiBNMjI2NS42MjUsODY5Ljc1IFEyMjY1LjYyNSw4NjkuNzUgMjI2NS42MjUsODcyLjU2MjUgTDIyNjcuMzc1LDg3Mi41NjI1IFEyMjY3LjM3NSw4NzIuNTYyNSAyMjY3LjM3NSw4NjkuNzUgTDIyNjUuNjI1LDg2OS43NSBaIE0yMjYxLjM3NSw4NzAuNDM3NSBMMjI2Ni4zMTI1LDg3MC40Mzc1IEwyMjY2LjMxMjUsODY4LjY4NzUgTDIyNjEuMzc1LDg2OC42ODc1IEwyMjYxLjM3NSw4NzAuNDM3NSBaICIgZmlsbD0iIzAwMDAwMCIvPjx0ZXh0IGZpbGw9IiMwMDAwMDAiIGZvbnQtZmFtaWx5PSJzYW5zLXNlcmlmIiBmb250LXNpemU9IjE0IiBsZW5ndGhBZGp1c3Q9InNwYWNpbmciIHRleHRMZW5ndGg9Ijg0IiB4PSIyMjg0LjI1IiB5PSI4NzkuNzQyMiI+REJDb25uZWN0aW9uPC90ZXh0PjxsaW5lIHN0eWxlPSJzdHJva2U6IzE4MTgxODtzdHJva2Utd2lkdGg6MC41OyIgeDE9IjIxNzEiIHgyPSIyNDQ5IiB5MT0iODkwIiB5Mj0iODkwIi8+PGxpbmUgc3R5bGU9InN0cm9rZTojMTgxODE4O3N0cm9rZS13aWR0aDowLjU7IiB4MT0iMjE3MSIgeDI9IjI0NDkiIHkxPSI4OTgiIHkyPSI4OTgiLz48ZWxsaXBzZSBjeD0iMjE4MSIgY3k9IjkxMC45OTIyIiBmaWxsPSIjODRCRTg0IiByeD0iMyIgcnk9IjMiIHN0eWxlPSJzdHJva2U6IzAzODA0ODtzdHJva2Utd2lkdGg6MS4wOyIvPjx0ZXh0IGZpbGw9IiMwMDAwMDAiIGZvbnQtZmFtaWx5PSJzYW5zLXNlcmlmIiBmb250LXNpemU9IjE0IiBsZW5ndGhBZGp1c3Q9InNwYWNpbmciIHRleHRMZW5ndGg9IjI1NCIgeD0iMjE5MCIgeT0iOTE1LjIzNDQiPmdldF9kYl9jb25uZWN0aW9uKCkgLSZndDsgZGIuY29ubmVjdGlvbjwvdGV4dD48L2c+PCEtLWxpbmsgQ2xpZW50IHRvIE1lbnVEaXNwbGF5LS0+PGcgaWQ9ImxpbmtfQ2xpZW50X01lbnVEaXNwbGF5Ij48cGF0aCBjb2RlTGluZT0iNDQiIGQ9Ik0zMDEuMzIsMzA2LjM3IEMyNjYuMjksMzM0LjE3IDIzNS4zMzA0LDM1OC43MzA5IDIwNC42NTA0LDM4My4wNzA5ICIgZmlsbD0ibm9uZSIgaWQ9IkNsaWVudC10by1NZW51RGlzcGxheSIgc3R5bGU9InN0cm9rZTojMTgxODE4O3N0cm9rZS13aWR0aDoxLjA7Ii8+PHBvbHlnb24gZmlsbD0iIzE4MTgxOCIgcG9pbnRzPSIxOTkuOTUsMzg2LjgsMjA5LjQ4NjcsMzg0LjM0LDIwMy44NjcsMzgzLjY5MjQsMjA0LjUxNDYsMzc4LjA3MjgsMTk5Ljk1LDM4Ni44IiBzdHlsZT0ic3Ryb2tlOiMxODE4MTg7c3Ryb2tlLXdpZHRoOjEuMDsiLz48L2c+PCEtLWxpbmsgQ2xpZW50IHRvIFJlcXVlc3REYXRhLS0+PGcgaWQ9ImxpbmtfQ2xpZW50X1JlcXVlc3REYXRhIj48cGF0aCBjb2RlTGluZT0iNDUiIGQ9Ik00NjUsMzEyLjA4IEM0NjUsMzM4LjA5IDQ2NSwzNTguMjYgNDY1LDM4MC45OCAiIGZpbGw9Im5vbmUiIGlkPSJDbGllbnQtdG8tUmVxdWVzdERhdGEiIHN0eWxlPSJzdHJva2U6IzE4MTgxODtzdHJva2Utd2lkdGg6MS4wOyIvPjxwb2x5Z29uIGZpbGw9IiMxODE4MTgiIHBvaW50cz0iNDY1LDM4Ni45OCw0NjksMzc3Ljk4LDQ2NSwzODEuOTgsNDYxLDM3Ny45OCw0NjUsMzg2Ljk4IiBzdHlsZT0ic3Ryb2tlOiMxODE4MTg7c3Ryb2tlLXdpZHRoOjEuMDsiLz48L2c+PCEtLWxpbmsgQ2xpZW50IHRvIE5vdGlmaWNhdGlvbkxpc3RlbmVyLS0+PGcgaWQ9ImxpbmtfQ2xpZW50X05vdGlmaWNhdGlvbkxpc3RlbmVyIj48cGF0aCBjb2RlTGluZT0iNDYiIGQ9Ik02MjguNjEsMzA0LjE0IEM2NzYuODYsMzQxLjc3IDcyMS44Mzk5LDM3Ni44NTg2IDc1OC43Njk5LDQwNS42Nzg2ICIgZmlsbD0ibm9uZSIgaWQ9IkNsaWVudC10by1Ob3RpZmljYXRpb25MaXN0ZW5lciIgc3R5bGU9InN0cm9rZTojMTgxODE4O3N0cm9rZS13aWR0aDoxLjA7Ii8+PHBvbHlnb24gZmlsbD0iIzE4MTgxOCIgcG9pbnRzPSI3NjMuNSw0MDkuMzcsNzU4Ljg2NTcsNDAwLjY3OTYsNzU5LjU1ODIsNDA2LjI5MzksNzUzLjk0MzksNDA2Ljk4NjQsNzYzLjUsNDA5LjM3IiBzdHlsZT0ic3Ryb2tlOiMxODE4MTg7c3Ryb2tlLXdpZHRoOjEuMDsiLz48L2c+PCEtLWxpbmsgU2VydmVyIHRvIFJlcXVlc3RIYW5kbGVyLS0+PGcgaWQ9ImxpbmtfU2VydmVyX1JlcXVlc3RIYW5kbGVyIj48cGF0aCBjb2RlTGluZT0iMTI0IiBkPSJNMjMxMCwyNjcuMzEgQzIzMTAsMzAwLjk2IDIzMTAsMzMyLjkyIDIzMTAsMzY1Ljg2ICIgZmlsbD0ibm9uZSIgaWQ9IlNlcnZlci10by1SZXF1ZXN0SGFuZGxlciIgc3R5bGU9InN0cm9rZTojMTgxODE4O3N0cm9rZS13aWR0aDoxLjA7Ii8+PHBvbHlnb24gZmlsbD0iIzE4MTgxOCIgcG9pbnRzPSIyMzEwLDM3MS44NiwyMzE0LDM2Mi44NiwyMzEwLDM2Ni44NiwyMzA2LDM2Mi44NiwyMzEwLDM3MS44NiIgc3R5bGU9InN0cm9rZTojMTgxODE4O3N0cm9rZS13aWR0aDoxLjA7Ii8+PC9nPjwhLS1saW5rIFJlcXVlc3RIYW5kbGVyIHRvIFVzZXJNYW5hZ2VtZW50LS0+PGcgaWQ9ImxpbmtfUmVxdWVzdEhhbmRsZXJfVXNlck1hbmFnZW1lbnQiPjxwYXRoIGNvZGVMaW5lPSIxMjUiIGQ9Ik0yMDkyLjY5LDQ3MS40OSBDMTg5OC42OCw0ODguNzMgMTYwOC41NSw1MjUuMjEgMTM2Niw2MDAgQzEzMjkuMyw2MTEuMzIgMTI5Ni4yNTIsNjI1LjYwNzYgMTI2Mi43ODIsNjQyLjI1NzYgIiBmaWxsPSJub25lIiBpZD0iUmVxdWVzdEhhbmRsZXItdG8tVXNlck1hbmFnZW1lbnQiIHN0eWxlPSJzdHJva2U6IzE4MTgxODtzdHJva2Utd2lkdGg6MS4wOyIvPjxwb2x5Z29uIGZpbGw9IiMxODE4MTgiIHBvaW50cz0iMTI1Ny40MSw2NDQuOTMsMTI2Ny4yNDk2LDY0NC41MDI4LDEyNjEuODg2Nyw2NDIuNzAzLDEyNjMuNjg2NCw2MzcuMzQwMSwxMjU3LjQxLDY0NC45MyIgc3R5bGU9InN0cm9rZTojMTgxODE4O3N0cm9rZS13aWR0aDoxLjA7Ii8+PC9nPjwhLS1saW5rIFJlcXVlc3RIYW5kbGVyIHRvIE1lbnVNYW5hZ2VtZW50LS0+PGcgaWQ9ImxpbmtfUmVxdWVzdEhhbmRsZXJfTWVudU1hbmFnZW1lbnQiPjxwYXRoIGNvZGVMaW5lPSIxMjYiIGQ9Ik0yMTA0LjEzLDU0MC4xMSBDMjA1Ni4zNCw1NTkuNCAyMDEwLjU5MzcsNTc3Ljg2MzkgMTk2MS4zNzM3LDU5Ny43MzM5ICIgZmlsbD0ibm9uZSIgaWQ9IlJlcXVlc3RIYW5kbGVyLXRvLU1lbnVNYW5hZ2VtZW50IiBzdHlsZT0ic3Ryb2tlOiMxODE4MTg7c3Ryb2tlLXdpZHRoOjEuMDsiLz48cG9seWdvbiBmaWxsPSIjMTgxODE4IiBwb2ludHM9IjE5NTUuODEsNTk5Ljk4LDE5NjUuNjUzLDYwMC4zMjAxLDE5NjAuNDQ2NCw1OTguMTA4MywxOTYyLjY1ODIsNTkyLjkwMTcsMTk1NS44MSw1OTkuOTgiIHN0eWxlPSJzdHJva2U6IzE4MTgxODtzdHJva2Utd2lkdGg6MS4wOyIvPjwvZz48IS0tbGluayBSZXF1ZXN0SGFuZGxlciB0byBOb3RpZmljYXRpb25TZXJ2aWNlLS0+PGcgaWQ9ImxpbmtfUmVxdWVzdEhhbmRsZXJfTm90aWZpY2F0aW9uU2VydmljZSI+PHBhdGggY29kZUxpbmU9IjEyNyIgZD0iTTIzMTAsNTQwLjI4IEMyMzEwLDU2OS41MyAyMzEwLDU5Ni4wMiAyMzEwLDYyMy44OCAiIGZpbGw9Im5vbmUiIGlkPSJSZXF1ZXN0SGFuZGxlci10by1Ob3RpZmljYXRpb25TZXJ2aWNlIiBzdHlsZT0ic3Ryb2tlOiMxODE4MTg7c3Ryb2tlLXdpZHRoOjEuMDsiLz48cG9seWdvbiBmaWxsPSIjMTgxODE4IiBwb2ludHM9IjIzMTAsNjI5Ljg4LDIzMTQsNjIwLjg4LDIzMTAsNjI0Ljg4LDIzMDYsNjIwLjg4LDIzMTAsNjI5Ljg4IiBzdHlsZT0ic3Ryb2tlOiMxODE4MTg7c3Ryb2tlLXdpZHRoOjEuMDsiLz48L2c+PCEtLWxpbmsgUmVxdWVzdEhhbmRsZXIgdG8gVm90aW5nU2VydmljZS0tPjxnIGlkPSJsaW5rX1JlcXVlc3RIYW5kbGVyX1ZvdGluZ1NlcnZpY2UiPjxwYXRoIGNvZGVMaW5lPSIxMjgiIGQ9Ik0yNDgyLjA4LDU0MC4xMSBDMjU1My45NCw1NzQuODEgMjYyOS45MDcxLDYxMS41MTA3IDI2OTMuNDk3MSw2NDIuMjIwNyAiIGZpbGw9Im5vbmUiIGlkPSJSZXF1ZXN0SGFuZGxlci10by1Wb3RpbmdTZXJ2aWNlIiBzdHlsZT0ic3Ryb2tlOiMxODE4MTg7c3Ryb2tlLXdpZHRoOjEuMDsiLz48cG9seWdvbiBmaWxsPSIjMTgxODE4IiBwb2ludHM9IjI2OTguOSw2NDQuODMsMjY5Mi41MzUxLDYzNy4zMTQxLDI2OTQuMzk3Niw2NDIuNjU1NiwyNjg5LjA1NjEsNjQ0LjUxOCwyNjk4LjksNjQ0LjgzIiBzdHlsZT0ic3Ryb2tlOiMxODE4MTg7c3Ryb2tlLXdpZHRoOjEuMDsiLz48L2c+PCEtLWxpbmsgUmVxdWVzdEhhbmRsZXIgdG8gRmVlZGJhY2tTZXJ2aWNlLS0+PGcgaWQ9ImxpbmtfUmVxdWVzdEhhbmRsZXJfRmVlZGJhY2tTZXJ2aWNlIj48cGF0aCBjb2RlTGluZT0iMTI5IiBkPSJNMjUyNy4wNiw0ODYuNTYgQzI2NzguMSw1MTAuMDEgMjg4My4xMyw1NDcuNTkgMzA1OSw2MDAgQzMwOTkuNzksNjEyLjE2IDMxMzcuNjM5LDYyNi41MDQ0IDMxNzYuMDQ5LDY0Mi42NTQ0ICIgZmlsbD0ibm9uZSIgaWQ9IlJlcXVlc3RIYW5kbGVyLXRvLUZlZWRiYWNrU2VydmljZSIgc3R5bGU9InN0cm9rZTojMTgxODE4O3N0cm9rZS13aWR0aDoxLjA7Ii8+PHBvbHlnb24gZmlsbD0iIzE4MTgxOCIgcG9pbnRzPSIzMTgxLjU4LDY0NC45OCwzMTc0LjgzMzksNjM3LjgwNDMsMzE3Ni45NzA5LDY0My4wNDIsMzE3MS43MzMyLDY0NS4xNzksMzE4MS41OCw2NDQuOTgiIHN0eWxlPSJzdHJva2U6IzE4MTgxODtzdHJva2Utd2lkdGg6MS4wOyIvPjwvZz48IS0tbGluayBVc2VyTWFuYWdlbWVudCB0byBEQkNvbm5lY3Rpb24tLT48ZyBpZD0ibGlua19Vc2VyTWFuYWdlbWVudF9EQkNvbm5lY3Rpb24iPjxwYXRoIGNvZGVMaW5lPSIxMzAiIGQ9Ik0xMjU0Ljc3LDc1My4wNyBDMTI4OC43NCw3NzAuMTkgMTMyOC4xNSw3ODcuNDYgMTM2Niw3OTggQzE1MTMuNSw4MzkuMDkgMTkzOC45OTk4LDg2Ny45MDczIDIxNjMuOTQ5OCw4ODAuNzc3MyAiIGZpbGw9Im5vbmUiIGlkPSJVc2VyTWFuYWdlbWVudC10by1EQkNvbm5lY3Rpb24iIHN0eWxlPSJzdHJva2U6IzE4MTgxODtzdHJva2Utd2lkdGg6MS4wOyIvPjxwb2x5Z29uIGZpbGw9IiMxODE4MTgiIHBvaW50cz0iMjE2OS45NCw4ODEuMTIsMjE2MS4xODMyLDg3Ni42MTI1LDIxNjQuOTQ4Miw4ODAuODM0NCwyMTYwLjcyNjIsODg0LjU5OTQsMjE2OS45NCw4ODEuMTIiIHN0eWxlPSJzdHJva2U6IzE4MTgxODtzdHJva2Utd2lkdGg6MS4wOyIvPjwvZz48IS0tbGluayBNZW51TWFuYWdlbWVudCB0byBEQkNvbm5lY3Rpb24tLT48ZyBpZD0ibGlua19NZW51TWFuYWdlbWVudF9EQkNvbm5lY3Rpb24iPjxwYXRoIGNvZGVMaW5lPSIxMzEiIGQ9Ik0yMDIzLjc0LDc5OC4xMSBDMjA5Mi43Myw4MTkuOSAyMTU1LjExODUsODM5LjU5MzIgMjIwNy41ODg1LDg1Ni4xNjMyICIgZmlsbD0ibm9uZSIgaWQ9Ik1lbnVNYW5hZ2VtZW50LXRvLURCQ29ubmVjdGlvbiIgc3R5bGU9InN0cm9rZTojMTgxODE4O3N0cm9rZS13aWR0aDoxLjA7Ii8+PHBvbHlnb24gZmlsbD0iIzE4MTgxOCIgcG9pbnRzPSIyMjEzLjMxLDg1Ny45NywyMjA1LjkzMjMsODUxLjQ0NTQsMjIwOC41NDIxLDg1Ni40NjQzLDIyMDMuNTIzMiw4NTkuMDc0MSwyMjEzLjMxLDg1Ny45NyIgc3R5bGU9InN0cm9rZTojMTgxODE4O3N0cm9rZS13aWR0aDoxLjA7Ii8+PC9nPjwhLS1saW5rIE5vdGlmaWNhdGlvblNlcnZpY2UgdG8gREJDb25uZWN0aW9uLS0+PGcgaWQ9ImxpbmtfTm90aWZpY2F0aW9uU2VydmljZV9EQkNvbm5lY3Rpb24iPjxwYXRoIGNvZGVMaW5lPSIxMzIiIGQ9Ik0yMzEwLDc2OC4wNSBDMjMxMCw3OTguODUgMjMxMCw4MjcuNjkgMjMxMCw4NTEuOTUgIiBmaWxsPSJub25lIiBpZD0iTm90aWZpY2F0aW9uU2VydmljZS10by1EQkNvbm5lY3Rpb24iIHN0eWxlPSJzdHJva2U6IzE4MTgxODtzdHJva2Utd2lkdGg6MS4wOyIvPjxwb2x5Z29uIGZpbGw9IiMxODE4MTgiIHBvaW50cz0iMjMxMCw4NTcuOTUsMjMxNCw4NDguOTUsMjMxMCw4NTIuOTUsMjMwNiw4NDguOTUsMjMxMCw4NTcuOTUiIHN0eWxlPSJzdHJva2U6IzE4MTgxODtzdHJva2Utd2lkdGg6MS4wOyIvPjwvZz48IS0tbGluayBWb3RpbmdTZXJ2aWNlIHRvIERCQ29ubmVjdGlvbi0tPjxnIGlkPSJsaW5rX1ZvdGluZ1NlcnZpY2VfREJDb25uZWN0aW9uIj48cGF0aCBjb2RlTGluZT0iMTMzIiBkPSJNMjY3NS42LDc1MyBDMjYzNy45Nyw3NjcuNzYgMjU5Ni45NCw3ODMuNjcgMjU1OSw3OTggQzI1MDQuODksODE4LjQ0IDI0NDkuNTA1OSw4MzguNTk5MyAyNDAxLjQwNTksODU1Ljg5OTMgIiBmaWxsPSJub25lIiBpZD0iVm90aW5nU2VydmljZS10by1EQkNvbm5lY3Rpb24iIHN0eWxlPSJzdHJva2U6IzE4MTgxODtzdHJva2Utd2lkdGg6MS4wOyIvPjxwb2x5Z29uIGZpbGw9IiMxODE4MTgiIHBvaW50cz0iMjM5NS43Niw4NTcuOTMsMjQwNS41ODI3LDg1OC42NDgsMjQwMC40NjQ5LDg1Ni4yMzc4LDI0MDIuODc1MSw4NTEuMTIwMSwyMzk1Ljc2LDg1Ny45MyIgc3R5bGU9InN0cm9rZTojMTgxODE4O3N0cm9rZS13aWR0aDoxLjA7Ii8+PC9nPjwhLS1saW5rIEZlZWRiYWNrU2VydmljZSB0byBEQkNvbm5lY3Rpb24tLT48ZyBpZD0ibGlua19GZWVkYmFja1NlcnZpY2VfREJDb25uZWN0aW9uIj48cGF0aCBjb2RlTGluZT0iMTM0IiBkPSJNMzE4NS45NSw3NTMuMDEgQzMxNDYuNjQsNzY5LjgxIDMxMDEuNTksNzg2Ljg4IDMwNTksNzk4IEMyODUxLjE2LDg1Mi4yNyAyNjA4LjIyMDIsODczLjgwNjkgMjQ1Ni4xNDAyLDg4Mi41MTY5ICIgZmlsbD0ibm9uZSIgaWQ9IkZlZWRiYWNrU2VydmljZS10by1EQkNvbm5lY3Rpb24iIHN0eWxlPSJzdHJva2U6IzE4MTgxODtzdHJva2Utd2lkdGg6MS4wOyIvPjxwb2x5Z29uIGZpbGw9IiMxODE4MTgiIHBvaW50cz0iMjQ1MC4xNSw4ODIuODYsMjQ1OS4zNjQsODg2LjMzODgsMjQ1NS4xNDE4LDg4Mi41NzQxLDI0NTguOTA2Niw4NzguMzUxOSwyNDUwLjE1LDg4Mi44NiIgc3R5bGU9InN0cm9rZTojMTgxODE4O3N0cm9rZS13aWR0aDoxLjA7Ii8+PC9nPjwhLS1TUkM9W2xMVkRTakNtNEJ4cDU5d1V0MjdmMF9aMFdIUTZPTVlQZVMxTDhxa1JINUlNWjJHN0VhcFY3VnF1amNKQkc5Q0NrSlhVVlRoaXh4VVI1ZkM3bDhOWXVmZXA0RVFZLUZNWWkxXzJpVFA1YUZLWXpyYU5Fd2JETE1ZWjhiYWhiUEtuT0lBUGJrRzE3RDhfZW1DYkVLcDFkR1E1NjlzQTZuMFRlYW90NzN6TW5RcnprbWFsaUpodXRlNHNZNkEzZy05SlVCa25CbjU2SUNDc1o2MzNmNDJTUUdDMkw1TlNIVThGbE5KZmJqYWZtRFIweTZIWVVfTlBWbmxtMjM3MTM0QmI0QTNMNjlWQjRLUmlCR0NlWEFNeUJEUWxmWTdJODJaZ3RJaHhQckxHSGVuN2tveTNiaWlqNHE1QkJJS1Z2NWltbzBLUTJUbjBFT0d5XzVvS2ttT3A2bjRmc3BBTy1GR1lvZHVLeUFHNFlBLUFnZy1FVUdKSXl6N3RGZkY4ZkpNb1FMSG0wNjNRTUJDeUI3REFUaDFQRjhJY3ZWOEg4ME9hSmFLTFNYUWRWQUlaNlltblNHTlpOTGtEblJ2QVFkb1VJRUpxMUItTmoyclN5azV1dmZxWElpa01CdmtSWDNGTkdxYlM1dFhXWTZqd0ZpT3JqMmRRSThOWUhqSGZKZGsyTWJseGZsR0c3S3JQOEpoQVNlMUx0WHZleUh4SzdiSEFZcTVzNTJzNkNqOUxjZkhyR1VrZ2s3YnpCT0swZHVLQ20tc21lRHBuTGtfRWtfMy1OMFJJMVlrM2o3U1h3ZzJXN0dOeC1jZjdRTjlNbFZNc0pnYTJoVnJsSDN0ZVlHa0tpWWNwbndyRDVZbWZRa25yNnp2OEd3djlVbS1KR0Zrd1JCMm1qbmxWYTUtaXU3UHVkcXdGNkVhZzk4akNjRHY1WFg1OG55RHo0NFB0emxQS1I0VnFMX3ktbnNxMFE2c0JRS0kteElMSng5Ml9RSXNpcWdnUHZJbXhBdVBhSkhmaUhXWEN4MzVkNThOa0ZxOTlhaGFxNnFkY19iM1ktUXZ1VmEzMkUzcEhYUkhDX2lzNUhMRDdzX09DVmxJWnh3V3lzUVJwcm40cHExb2Zlc2tmTXB2RUxLRTFtbmRLWEQ1OVA2Q0xxUHhUWnpFNHUyVUdwZmVLNzJuOWZ4SXFKNGRoZ18xckxKV3gzX0RpTFJZcnc0MkhvZFZiWGFqaTNfMFVDdXZobmZidnBGOVJrWExBWDNhVm5nYWt2eHBjUnpQQU9hZ205Vjd1VWxhTjVpbUdxRnprZzlkQkhvUjg1dHl3bnVfQ3o3NlhKRFp2VjJxalJTY3YzVU5LSmwzWHlUZzh4Nm1RSmdNbW9PV3ZjeUV3Z25pQkVTb3FLeG5MdTdRSmFwc3p4aElIcFZseFp0VGwxOTRxTUhQVU1nQlF1OHdSS2pSVmdXQUJuLUpfSnc4ZHpaVEh1S1lBclpPbFh6Rm1SeWluSW5oMk5ic182cVBoUHhvZEpIT1JYeWhpQm5iS1BkVjllOVBNYlducWxnemFHQmJMUEpCWDdNbk1KZkNIY2lOYXMycUJKN2l0MnZkTS1tcHF6MWkwXS0tPjwvZz48L3N2Zz4=;" vertex="1" parent="1">
            <mxGeometry x="-1360" y="-230" width="3541" height="944" as="geometry" />
          </mxCell>
        </UserObject>
      </root>
    </mxGraphModel>
  </diagram>
</mxfile>
